<?xml version="1.0" encoding="UTF-8" standalone="no"?>
<!-- Created with Inkscape (http://www.inkscape.org/) -->

<svg
   xmlns:dc="http://purl.org/dc/elements/1.1/"
   xmlns:cc="http://creativecommons.org/ns#"
   xmlns:rdf="http://www.w3.org/1999/02/22-rdf-syntax-ns#"
   xmlns:svg="http://www.w3.org/2000/svg"
   xmlns="http://www.w3.org/2000/svg"
   xmlns:sodipodi="http://sodipodi.sourceforge.net/DTD/sodipodi-0.dtd"
   xmlns:inkscape="http://www.inkscape.org/namespaces/inkscape"
   width="15.414683mm"
   height="24.347052mm"
   viewBox="0 0 54.618957 86.26908"
   id="svg6741"
   version="1.1"
   inkscape:version="0.91 r13725"
   sodipodi:docname="female.svg">
  <defs
     id="defs6743" />
  <sodipodi:namedview
     id="base"
     pagecolor="#ffffff"
     bordercolor="#666666"
     borderopacity="1.0"
     inkscape:pageopacity="0.0"
     inkscape:pageshadow="2"
     inkscape:zoom="0.35"
     inkscape:cx="246.59519"
     inkscape:cy="-134.00832"
     inkscape:document-units="px"
     inkscape:current-layer="layer1"
     showgrid="false"
     fit-margin-top="0"
     fit-margin-left="0"
     fit-margin-right="0"
     fit-margin-bottom="0"
     inkscape:window-width="1280"
     inkscape:window-height="751"
     inkscape:window-x="0"
     inkscape:window-y="1"
     inkscape:window-maximized="1" />
  <metadata
     id="metadata6746">
    <rdf:RDF>
      <cc:Work
         rdf:about="">
        <dc:format>image/svg+xml</dc:format>
        <dc:type
           rdf:resource="http://purl.org/dc/dcmitype/StillImage" />
        <dc:title></dc:title>
      </cc:Work>
    </rdf:RDF>
  </metadata>
  <g
     inkscape:label="Layer 1"
     inkscape:groupmode="layer"
     id="layer1"
     transform="translate(330.16662,-312.08481)">
    <g
       id="g4745"
       transform="matrix(0.10248843,-0.09537192,0.09537192,0.10248843,-352.71273,348.46576)"
       inkscape:export-xdpi="63.247101"
       inkscape:export-ydpi="63.247101">
      <g
         id="g4703">
        <g
           id="g4705">
          <path
             id="path4707"
             d="m 304.84,0.002 c -107.608,0 -195.16,87.548 -195.16,195.16 0,43.516 14.772,86.112 41.664,120.352 L 85.584,381.282 40,335.69 c -4.424,-4.428 -10.312,-6.864 -16.572,-6.864 -6.26,0 -12.14,2.432 -16.568,6.864 C 2.436,340.118 0,346.002 0,352.258 c 0,6.256 2.436,12.144 6.864,16.564 L 52.452,414.414 6.864,460.002 C 2.44,464.422 0,470.31 0,476.57 c 0,6.256 2.436,12.144 6.864,16.564 4.424,4.428 10.308,6.868 16.568,6.868 6.26,0 12.144,-2.436 16.572,-6.868 l 45.584,-45.584 45.592,45.584 c 4.42,4.428 10.304,6.868 16.568,6.868 6.256,0 12.14,-2.436 16.568,-6.868 4.428,-4.42 6.868,-10.308 6.868,-16.564 0,-6.26 -2.436,-12.148 -6.868,-16.568 l -45.588,-45.588 65.76,-65.76 c 34.244,26.892 76.836,41.664 120.356,41.664 107.612,0 195.16,-87.552 195.16,-195.156 C 500,87.55 412.452,0.002 304.84,0.002 Z m 0,343.452 c -81.768,0 -148.296,-66.52 -148.296,-148.292 0,-81.772 66.528,-148.3 148.296,-148.3 81.772,0 148.3,66.528 148.3,148.3 0,81.772 -66.528,148.292 -148.3,148.292 z"
             inkscape:connector-curvature="0" />
        </g>
      </g>
      <g
         id="g4709" />
      <g
         id="g4711" />
      <g
         id="g4713" />
      <g
         id="g4715" />
      <g
         id="g4717" />
      <g
         id="g4719" />
      <g
         id="g4721" />
      <g
         id="g4723" />
      <g
         id="g4725" />
      <g
         id="g4727" />
      <g
         id="g4729" />
      <g
         id="g4731" />
      <g
         id="g4733" />
      <g
         id="g4735" />
      <g
         id="g4737" />
    </g>
  </g>
</svg>
