<?xml version="1.0" encoding="UTF-8" standalone="no"?>
<!-- Created with Inkscape (http://www.inkscape.org/) -->

<svg
   xmlns:dc="http://purl.org/dc/elements/1.1/"
   xmlns:cc="http://creativecommons.org/ns#"
   xmlns:rdf="http://www.w3.org/1999/02/22-rdf-syntax-ns#"
   xmlns:svg="http://www.w3.org/2000/svg"
   xmlns="http://www.w3.org/2000/svg"
   xmlns:sodipodi="http://sodipodi.sourceforge.net/DTD/sodipodi-0.dtd"
   xmlns:inkscape="http://www.inkscape.org/namespaces/inkscape"
   width="19.755552mm"
   height="19.744488mm"
   viewBox="0 0 69.999988 69.960783"
   id="svg6105"
   version="1.1"
   inkscape:version="0.91 r13725"
   sodipodi:docname="male.svg">
  <defs
     id="defs6107" />
  <sodipodi:namedview
     id="base"
     pagecolor="#ffffff"
     bordercolor="#666666"
     borderopacity="1.0"
     inkscape:pageopacity="0.0"
     inkscape:pageshadow="2"
     inkscape:zoom="0.98994949"
     inkscape:cx="-133.89405"
     inkscape:cy="85.611194"
     inkscape:document-units="px"
     inkscape:current-layer="g4682"
     showgrid="false"
     fit-margin-top="0"
     fit-margin-left="0"
     fit-margin-right="0"
     fit-margin-bottom="0"
     inkscape:window-width="1280"
     inkscape:window-height="751"
     inkscape:window-x="0"
     inkscape:window-y="1"
     inkscape:window-maximized="1" />
  <metadata
     id="metadata6110">
    <rdf:RDF>
      <cc:Work
         rdf:about="">
        <dc:format>image/svg+xml</dc:format>
        <dc:type
           rdf:resource="http://purl.org/dc/dcmitype/StillImage" />
        <dc:title></dc:title>
      </cc:Work>
    </rdf:RDF>
  </metadata>
  <g
     inkscape:label="Layer 1"
     inkscape:groupmode="layer"
     id="layer1"
     transform="translate(-487.85715,-911.66753)"
     style="opacity:0.7">
    <g
       id="g4682"
       transform="matrix(0.14000109,0,0,0.14000109,487.85715,911.64793)"
       style=""
       inkscape:export-xdpi="63.247101"
       inkscape:export-ydpi="63.247101">
      <g
         id="g4640"
         style="">
        <g
           id="g4642"
           style="">
          <path
             id="path4644"
             d="m 499.292,19.184 c -0.1,-0.528 -0.384,-1.036 -0.548,-1.54 l -0.332,-0.908 c -0.184,-0.648 -0.404,-1.292 -0.664,-1.936 -0.26,-0.624 -0.596,-1.204 -0.92,-1.784 L 496.36,12.168 C 496.124,11.704 495.876,11.24 495.576,10.78 493.848,8.2 491.66,6.02 489.084,4.292 488.66,4.008 488.208,3.776 487.76,3.544 L 487,3.132 c -0.628,-0.356 -1.256,-0.7 -1.94,-0.992 -0.584,-0.236 -1.176,-0.412 -1.776,-0.58 l -0.932,-0.28 c -0.548,-0.184 -1.1,-0.352 -1.672,-0.468 -1.3,-0.256 -2.668,-0.508 -4.1,-0.536 C 476.42,0.26 476.236,0.14 476.116,0.14 l -97.44,0 c -12.912,0 -23.412,10.528 -23.412,23.436 0,12.912 10.5,23.436 23.412,23.436 l 40.928,0 -104.396,104.464 C 281,124.608 238.444,109.892 194.968,109.892 87.46,109.888 0,197.372 0,304.88 c 0,107.5 87.46,194.976 194.968,194.976 107.508,0 194.972,-87.46 194.972,-194.968 0,-43.472 -14.544,-86.024 -41.412,-120.236 l 104.596,-104.376 0,40.928 c 0,12.908 10.528,23.412 23.436,23.412 12.908,0 23.436,-10.5 23.436,-23.412 l 0,-97.436 c 0.004,-1.516 -0.4,-3.06 -0.704,-4.584 z m -304.324,433.86 c -81.692,0 -148.152,-66.46 -148.152,-148.148 0,-81.696 66.46,-148.156 148.152,-148.156 81.688,0 148.156,66.46 148.156,148.156 -0.004,81.688 -66.468,148.148 -148.156,148.148 z"
             inkscape:connector-curvature="0"
             style="fill:#000000;fill-opacity:1" />
        </g>
      </g>
      <g
         id="g4646"
         style="" />
      <g
         id="g4648"
         style="" />
      <g
         id="g4650"
         style="" />
      <g
         id="g4652"
         style="" />
      <g
         id="g4654"
         style="" />
      <g
         id="g4656"
         style="" />
      <g
         id="g4658"
         style="" />
      <g
         id="g4660"
         style="" />
      <g
         id="g4662"
         style="" />
      <g
         id="g4664"
         style="" />
      <g
         id="g4666"
         style="" />
      <g
         id="g4668"
         style="" />
      <g
         id="g4670"
         style="" />
      <g
         id="g4672"
         style="" />
      <g
         id="g4674"
         style="" />
    </g>
  </g>
</svg>
