<?xml version="1.0" encoding="UTF-8" standalone="no"?>
<!-- Created with Inkscape (http://www.inkscape.org/) -->

<svg
   xmlns:dc="http://purl.org/dc/elements/1.1/"
   xmlns:cc="http://creativecommons.org/ns#"
   xmlns:rdf="http://www.w3.org/1999/02/22-rdf-syntax-ns#"
   xmlns:svg="http://www.w3.org/2000/svg"
   xmlns="http://www.w3.org/2000/svg"
   xmlns:sodipodi="http://sodipodi.sourceforge.net/DTD/sodipodi-0.dtd"
   xmlns:inkscape="http://www.inkscape.org/namespaces/inkscape"
   width="894.65601"
   height="800.55609"
   id="svg2"
   version="1.1"
   inkscape:version="0.91 r13725"
   sodipodi:docname="Ne_genome_size.svg"
   inkscape:export-filename="/Users/bebatut/Documents/phd/com/2017/backofen_lab_meeting_02_16/images/Ne_genome_size.png"
   inkscape:export-xdpi="51.261677"
   inkscape:export-ydpi="51.261677">
  <defs
     id="defs4">
    <marker
       inkscape:stockid="Arrow1Mend"
       orient="auto"
       refY="0"
       refX="0"
       id="Arrow1Mend"
       style="overflow:visible">
      <path
         id="path3767"
         d="M 0,0 5,-5 -12.5,0 5,5 0,0 z"
         style="fill-rule:evenodd;stroke:#000000;stroke-width:1pt;marker-start:none"
         transform="matrix(-0.4,0,0,-0.4,-4,0)"
         inkscape:connector-curvature="0" />
    </marker>
    <marker
       inkscape:stockid="Arrow1Mend"
       orient="auto"
       refY="0"
       refX="0"
       id="Arrow1Mend-1"
       style="overflow:visible">
      <path
         inkscape:connector-curvature="0"
         id="path3767-6"
         d="M 0,0 5,-5 -12.5,0 5,5 0,0 z"
         style="fill-rule:evenodd;stroke:#000000;stroke-width:1pt;marker-start:none"
         transform="matrix(-0.4,0,0,-0.4,-4,0)" />
    </marker>
    <clipPath
       clipPathUnits="userSpaceOnUse"
       id="clipPath18">
      <path
         inkscape:connector-curvature="0"
         d="m 57.6,86.4 417.6,0 0,388.8 -417.6,0 0,-388.8 z"
         id="path20" />
    </clipPath>
    <clipPath
       clipPathUnits="userSpaceOnUse"
       id="clipPath260">
      <path
         inkscape:connector-curvature="0"
         d="m 57.6,86.4 417.6,0 0,388.8 -417.6,0 0,-388.8 z"
         id="path262" />
    </clipPath>
    <clipPath
       clipPathUnits="userSpaceOnUse"
       id="clipPath280">
      <path
         inkscape:connector-curvature="0"
         d="m 57.6,86.4 417.6,0 0,388.8 -417.6,0 0,-388.8 z"
         id="path282" />
    </clipPath>
    <clipPath
       clipPathUnits="userSpaceOnUse"
       id="clipPath18-9">
      <path
         inkscape:connector-curvature="0"
         d="m 57.6,28.8 417.6,0 0,388.8 -417.6,0 0,-388.8 z"
         id="path20-7" />
    </clipPath>
    <clipPath
       clipPathUnits="userSpaceOnUse"
       id="clipPath110">
      <path
         inkscape:connector-curvature="0"
         d="m 57.6,28.8 417.6,0 0,388.8 -417.6,0 0,-388.8 z"
         id="path112-4" />
    </clipPath>
    <marker
       inkscape:stockid="Arrow1Mend"
       orient="auto"
       refY="0"
       refX="0"
       id="Arrow1Mend-1-79"
       style="overflow:visible">
      <path
         inkscape:connector-curvature="0"
         id="path3767-6-3"
         d="M 0,0 5,-5 -12.5,0 5,5 0,0 z"
         style="fill-rule:evenodd;stroke:#000000;stroke-width:1pt;marker-start:none"
         transform="matrix(-0.4,0,0,-0.4,-4,0)" />
    </marker>
    <marker
       inkscape:stockid="Arrow1Mend"
       orient="auto"
       refY="0"
       refX="0"
       id="marker4747"
       style="overflow:visible">
      <path
         inkscape:connector-curvature="0"
         id="path4749"
         d="M 0,0 5,-5 -12.5,0 5,5 0,0 z"
         style="fill-rule:evenodd;stroke:#000000;stroke-width:1pt;marker-start:none"
         transform="matrix(-0.4,0,0,-0.4,-4,0)" />
    </marker>
    <marker
       inkscape:stockid="Arrow1Mend"
       orient="auto"
       refY="0"
       refX="0"
       id="Arrow1Mend-1-7"
       style="overflow:visible">
      <path
         inkscape:connector-curvature="0"
         id="path3767-6-8"
         d="M 0,0 5,-5 -12.5,0 5,5 0,0 z"
         style="fill-rule:evenodd;stroke:#000000;stroke-width:1pt;marker-start:none"
         transform="matrix(-0.4,0,0,-0.4,-4,0)" />
    </marker>
    <marker
       style="overflow:visible"
       id="Arrow1Mend-17"
       refX="0"
       refY="0"
       orient="auto"
       inkscape:stockid="Arrow1Mend-17">
      <path
         transform="matrix(-0.4,0,0,-0.4,-4,0)"
         style="fill:#ff0000;fill-rule:evenodd;stroke:#ff0000;stroke-width:1pt;marker-start:none"
         d="M 0,0 5,-5 -12.5,0 5,5 0,0 z"
         id="path3060"
         inkscape:connector-curvature="0" />
    </marker>
    <marker
       inkscape:stockid="Arrow1Mend"
       orient="auto"
       refY="0"
       refX="0"
       id="Arrow1Mend-2"
       style="overflow:visible">
      <path
         id="path3767-69"
         d="M 0,0 5,-5 -12.5,0 5,5 0,0 z"
         style="fill-rule:evenodd;stroke:#000000;stroke-width:1pt;marker-start:none"
         transform="matrix(-0.4,0,0,-0.4,-4,0)"
         inkscape:connector-curvature="0" />
    </marker>
    <marker
       inkscape:stockid="Arrow1Mend"
       orient="auto"
       refY="0"
       refX="0"
       id="Arrow1Mend-3"
       style="overflow:visible">
      <path
         id="path3767-8"
         d="M 0,0 5,-5 -12.5,0 5,5 0,0 z"
         style="fill-rule:evenodd;stroke:#000000;stroke-width:1pt;marker-start:none"
         transform="matrix(-0.4,0,0,-0.4,-4,0)"
         inkscape:connector-curvature="0" />
    </marker>
    <marker
       inkscape:stockid="Arrow1Mend"
       orient="auto"
       refY="0"
       refX="0"
       id="marker5178"
       style="overflow:visible">
      <path
         id="path5180"
         d="M 0,0 5,-5 -12.5,0 5,5 0,0 z"
         style="fill-rule:evenodd;stroke:#000000;stroke-width:1pt;marker-start:none"
         transform="matrix(-0.4,0,0,-0.4,-4,0)"
         inkscape:connector-curvature="0" />
    </marker>
    <marker
       inkscape:stockid="Arrow1Mend"
       orient="auto"
       refY="0"
       refX="0"
       id="Arrow1Mend-35"
       style="overflow:visible">
      <path
         id="path3767-4"
         d="M 0,0 5,-5 -12.5,0 5,5 0,0 z"
         style="fill-rule:evenodd;stroke:#000000;stroke-width:1pt;marker-start:none"
         transform="matrix(-0.4,0,0,-0.4,-4,0)"
         inkscape:connector-curvature="0" />
    </marker>
    <marker
       inkscape:stockid="Arrow1Mend"
       orient="auto"
       refY="0"
       refX="0"
       id="Arrow1Mend-7"
       style="overflow:visible">
      <path
         id="path3767-9"
         d="M 0,0 5,-5 -12.5,0 5,5 0,0 z"
         style="fill-rule:evenodd;stroke:#000000;stroke-width:1pt;marker-start:none"
         transform="matrix(-0.4,0,0,-0.4,-4,0)"
         inkscape:connector-curvature="0" />
    </marker>
  </defs>
  <sodipodi:namedview
     id="base"
     pagecolor="#ffffff"
     bordercolor="#666666"
     borderopacity="1.0"
     inkscape:pageopacity="0.0"
     inkscape:pageshadow="2"
     inkscape:zoom="0.49497476"
     inkscape:cx="82.058137"
     inkscape:cy="265.74685"
     inkscape:document-units="px"
     inkscape:current-layer="layer1"
     showgrid="false"
     inkscape:window-width="1280"
     inkscape:window-height="755"
     inkscape:window-x="41"
     inkscape:window-y="0"
     inkscape:window-maximized="0"
     fit-margin-top="5"
     fit-margin-right="5"
     fit-margin-bottom="5"
     fit-margin-left="5" />
  <metadata
     id="metadata7">
    <rdf:RDF>
      <cc:Work
         rdf:about="">
        <dc:format>image/svg+xml</dc:format>
        <dc:type
           rdf:resource="http://purl.org/dc/dcmitype/StillImage" />
        <dc:title />
      </cc:Work>
    </rdf:RDF>
  </metadata>
  <g
     inkscape:label="Layer 1"
     inkscape:groupmode="layer"
     id="layer1"
     transform="translate(79.200821,-443.83771)">
    <path
       sodipodi:type="arc"
       style="fill:#c8c8c8;fill-opacity:1;stroke:none"
       id="path4011"
       sodipodi:cx="562.65497"
       sodipodi:cy="304.15607"
       sodipodi:rx="150.51273"
       sodipodi:ry="251.52798"
       d="M 713.16769,304.15607 A 150.51273,251.52798 0 0 1 562.65497,555.68405 150.51273,251.52798 0 0 1 412.14224,304.15607 150.51273,251.52798 0 0 1 562.65497,52.628082 150.51273,251.52798 0 0 1 713.16769,304.15607 Z"
       transform="matrix(0.82749208,0.56147738,-0.56147738,0.82749208,161.56544,256.61462)" />
    <path
       sodipodi:type="arc"
       style="fill:#c8c8c8;fill-opacity:1;stroke:none"
       id="path4009"
       sodipodi:cx="233.34523"
       sodipodi:cy="599.12061"
       sodipodi:rx="110.10662"
       sodipodi:ry="83.842659"
       d="M 343.45185,599.12061 A 110.10662,83.842659 0 0 1 233.34523,682.96326 110.10662,83.842659 0 0 1 123.23861,599.12061 110.10662,83.842659 0 0 1 233.34523,515.27795 110.10662,83.842659 0 0 1 343.45185,599.12061 Z"
       transform="translate(-112.33467,475.6166)" />
    <path
       style="fill:none;stroke:#000000;stroke-width:4;stroke-linecap:butt;stroke-linejoin:miter;stroke-miterlimit:4;stroke-opacity:1;stroke-dasharray:none;marker-end:url(#Arrow1Mend)"
       d="m 0,1217.4283 745.49258,0"
       id="path2985"
       inkscape:connector-curvature="0" />
    <flowRoot
       xml:space="preserve"
       id="flowRoot4199"
       style="font-size:40px;font-style:italic;font-variant:normal;font-weight:normal;font-stretch:normal;line-height:125%;letter-spacing:0px;word-spacing:0px;fill:#000000;fill-opacity:1;stroke:none;font-family:Sans;-inkscape-font-specification:Sans Italic"
       transform="translate(-18.182746,858.03069)"><flowRegion
         id="flowRegion4201"><rect
           id="rect4203"
           width="236.3757"
           height="208.09143"
           x="783.87836"
           y="333.13358"
           style="font-size:40px;font-style:italic;font-variant:normal;font-weight:normal;font-stretch:normal;font-family:Sans;-inkscape-font-specification:Sans Italic" /></flowRegion><flowPara
         id="flowPara4205">N<flowSpan
   style="font-size:65.00091553%;font-style:italic;baseline-shift:sub;-inkscape-font-specification:Sans Italic"
   id="flowSpan4207">e</flowSpan></flowPara></flowRoot>    <g
       id="g106"
       transform="matrix(1.7029909,0,0,-1.7029909,-97.6637,1257.2559)"
       style="stroke:#000000;stroke-opacity:1">
      <g
         id="g108"
         clip-path="url(#clipPath110)"
         style="stroke:#000000;stroke-opacity:1">
        <path
           d="m 57.6,117.46 4.18,0.9 4.17,0.92 4.18,0.93 4.17,0.96 4.18,0.97 4.18,1 4.17,1.02 4.18,1.03 4.17,1.06 4.18,1.09 4.18,1.1 4.17,1.13 4.18,1.15 4.17,1.18 4.18,1.2 4.18,1.22 4.17,1.25 4.18,1.28 4.17,1.31 4.18,1.33 4.18,1.36 4.17,1.38 4.18,1.42 4.17,1.45 4.18,1.47 4.18,1.51 4.17,1.54 4.18,1.57 4.17,1.61 4.18,1.64 4.18,1.67 4.17,1.71 4.18,1.74 4.17,1.78 4.18,1.82 4.18,1.85 4.17,1.9 4.18,1.93 4.17,1.98 4.18,2.01 4.18,2.06 4.17,2.1 4.18,2.15 4.17,2.19 4.18,2.23 4.18,2.29 4.17,2.33 4.18,2.38 4.17,2.43 4.18,2.48 4.18,2.53 4.17,2.59 4.18,2.64 4.17,2.69 4.18,2.75 4.18,2.81 4.17,2.87 4.18,2.93 4.17,2.99 4.18,3.05 4.18,3.12 4.17,3.18 4.18,3.25 4.17,3.31 4.18,3.39 4.18,3.46 4.17,3.53 4.18,3.6 4.17,3.68 4.18,3.75 4.18,3.84 4.17,3.91 4.18,4 4.17,4.08 4.18,4.17 4.18,4.25 4.17,4.34 4.18,4.44 4.17,4.52 4.18,4.62 4.18,4.72 4.17,4.82 4.18,4.92 4.17,5.02 4.18,5.13 4.18,5.23 4.17,5.34 4.18,5.46 4.17,5.57 4.18,5.68 4.18,5.81 4.17,5.93 4.18,6.05 4.17,6.18 4.18,6.31 4.18,6.44 4.17,6.57 4.18,6.71 4.17,6.86 4.18,6.99"
           style="fill:none;stroke:#000000;stroke-width:0.75;stroke-linecap:round;stroke-linejoin:round;stroke-miterlimit:10;stroke-opacity:1;stroke-dasharray:none"
           id="path114-0"
           inkscape:connector-curvature="0" />
      </g>
    </g>
    <path
       style="fill:none;stroke:#000000;stroke-width:4;stroke-linecap:butt;stroke-linejoin:miter;stroke-miterlimit:4;stroke-opacity:1;stroke-dasharray:none;marker-end:url(#Arrow1Mend)"
       d="m -17.057043,1208.3963 0,-680.84283"
       id="path2985-3"
       inkscape:connector-curvature="0"
       sodipodi:nodetypes="cc" />
    <flowRoot
       xml:space="preserve"
       id="flowRoot4199-8"
       style="font-style:normal;font-variant:normal;font-weight:normal;font-stretch:normal;font-size:28px;line-height:125%;font-family:Sans;-inkscape-font-specification:Sans;text-align:center;letter-spacing:0px;word-spacing:0px;text-anchor:middle;fill:#000000;fill-opacity:1;stroke:none"
       transform="translate(-877.48282,109.07717)"><flowRegion
         id="flowRegion4201-0"><rect
           id="rect4203-2"
           width="151.52286"
           height="208.0914"
           x="783.87836"
           y="333.13358"
           style="font-style:normal;font-variant:normal;font-weight:normal;font-stretch:normal;font-size:28px;font-family:Sans;-inkscape-font-specification:Sans;text-align:center;text-anchor:middle" /></flowRegion><flowPara
         id="flowPara4205-4">Genome size</flowPara></flowRoot>    <flowRoot
       xml:space="preserve"
       id="flowRoot4199-8-5"
       style="font-style:normal;font-variant:normal;font-weight:normal;font-stretch:normal;font-size:24px;line-height:125%;font-family:Sans;-inkscape-font-specification:Sans;letter-spacing:0px;word-spacing:0px;fill:#000000;fill-opacity:1;stroke:none"
       transform="translate(-576.65054,799.89232)"><flowRegion
         id="flowRegion4201-0-8"><rect
           id="rect4203-2-9"
           width="236.3757"
           height="208.09143"
           x="783.87836"
           y="333.13358"
           style="font-style:normal;font-variant:normal;font-weight:normal;font-stretch:normal;font-size:24px;font-family:Sans;-inkscape-font-specification:Sans" /></flowRegion><flowPara
         id="flowPara4205-4-9">Endosymbionts</flowPara></flowRoot>    <flowRoot
       xml:space="preserve"
       id="flowRoot4199-8-5-1"
       style="font-style:normal;font-variant:normal;font-weight:normal;font-stretch:normal;font-size:24px;line-height:125%;font-family:Sans;-inkscape-font-specification:Sans;letter-spacing:0px;word-spacing:0px;fill:#000000;fill-opacity:1;stroke:none"
       transform="translate(-480.79441,231.50387)"><flowRegion
         id="flowRegion4201-0-8-8"><rect
           id="rect4203-2-9-4"
           width="236.3757"
           height="208.09143"
           x="783.87836"
           y="333.13358"
           style="font-style:normal;font-variant:normal;font-weight:normal;font-stretch:normal;font-size:24px;font-family:Sans;-inkscape-font-specification:Sans" /></flowRegion><flowPara
         id="flowPara4205-4-9-9">Free bacteria</flowPara></flowRoot>    <rect
       style="fill:#ff0000;fill-opacity:1;stroke:none"
       id="rect4067"
       width="24.24366"
       height="24.24366"
       x="584.67059"
       y="1023.2194" />
    <flowRoot
       xml:space="preserve"
       id="flowRoot4199-8-5-3"
       style="font-size:24px;font-style:italic;font-variant:normal;font-weight:normal;font-stretch:normal;line-height:125%;letter-spacing:0px;word-spacing:0px;fill:#ff0000;fill-opacity:1;stroke:none;font-family:Sans;-inkscape-font-specification:Sans Italic"
       transform="translate(-287.60132,715.21994)"><flowRegion
         id="flowRegion4201-0-8-4"><rect
           id="rect4203-2-9-8"
           width="236.3757"
           height="208.09143"
           x="783.87836"
           y="333.13358"
           style="font-size:24px;font-style:italic;font-variant:normal;font-weight:normal;font-stretch:normal;fill:#ff0000;fill-opacity:1;stroke:none;font-family:Sans;-inkscape-font-specification:Sans Italic" /></flowRegion><flowPara
         id="flowPara4205-4-9-6">Prochlorococcus</flowPara></flowRoot>  </g>
</svg>
