<?xml version="1.0" encoding="UTF-8" standalone="no"?>
<!-- Created with Inkscape (http://www.inkscape.org/) -->

<svg
   xmlns:dc="http://purl.org/dc/elements/1.1/"
   xmlns:cc="http://creativecommons.org/ns#"
   xmlns:rdf="http://www.w3.org/1999/02/22-rdf-syntax-ns#"
   xmlns:svg="http://www.w3.org/2000/svg"
   xmlns="http://www.w3.org/2000/svg"
   xmlns:sodipodi="http://sodipodi.sourceforge.net/DTD/sodipodi-0.dtd"
   xmlns:inkscape="http://www.inkscape.org/namespaces/inkscape"
   width="1087.8696"
   height="1087.631"
   id="svg2"
   version="1.1"
   inkscape:version="0.91 r13725"
   sodipodi:docname="previous_gene_content_analyses.svg"
   inkscape:export-filename="/Users/bebatut/Documents/phd/com/2017/hess_lab_meeting_02_16/images/previous_gene_content_analyses.png"
   inkscape:export-xdpi="37.582439"
   inkscape:export-ydpi="37.582439">
  <defs
     id="defs4">
    <marker
       inkscape:stockid="Arrow1Mstart"
       orient="auto"
       refY="0"
       refX="0"
       id="Arrow1Mstart"
       style="overflow:visible">
      <path
         id="path4522"
         d="M 0,0 5,-5 -12.5,0 5,5 0,0 z"
         style="fill-rule:evenodd;stroke:#000000;stroke-width:1pt;marker-start:none"
         transform="matrix(0.4,0,0,0.4,4,0)"
         inkscape:connector-curvature="0" />
    </marker>
    <marker
       inkscape:stockid="Arrow1Mend"
       orient="auto"
       refY="0"
       refX="0"
       id="Arrow1Mend-55"
       style="overflow:visible">
      <path
         id="path4439-4"
         d="M 0,0 5,-5 -12.5,0 5,5 0,0 z"
         style="fill-rule:evenodd;stroke:#000000;stroke-width:1pt;marker-start:none"
         transform="matrix(-0.4,0,0,-0.4,-4,0)"
         inkscape:connector-curvature="0" />
    </marker>
  </defs>
  <sodipodi:namedview
     id="base"
     pagecolor="#ffffff"
     bordercolor="#666666"
     borderopacity="1.0"
     inkscape:pageopacity="0.0"
     inkscape:pageshadow="2"
     inkscape:zoom="0.49497475"
     inkscape:cx="171.26668"
     inkscape:cy="627.49219"
     inkscape:document-units="px"
     inkscape:current-layer="layer1"
     showgrid="false"
     fit-margin-top="5"
     fit-margin-right="5"
     fit-margin-bottom="5"
     fit-margin-left="5"
     inkscape:window-width="1780"
     inkscape:window-height="1107"
     inkscape:window-x="1411"
     inkscape:window-y="0"
     inkscape:window-maximized="0"
     showguides="true"
     inkscape:guide-bbox="true" />
  <metadata
     id="metadata7">
    <rdf:RDF>
      <cc:Work
         rdf:about="">
        <dc:format>image/svg+xml</dc:format>
        <dc:type
           rdf:resource="http://purl.org/dc/dcmitype/StillImage" />
        <dc:title />
      </cc:Work>
    </rdf:RDF>
  </metadata>
  <g
     inkscape:label="Layer 1"
     inkscape:groupmode="layer"
     id="layer1"
     transform="translate(126.64787,3.686641)">
    <g
       id="g6762"
       transform="matrix(1.3573654,0,0,1.3573654,-119.29275,1047.9133)">
      <g
         transform="matrix(0.56707273,0,0,1,12.489536,-672.64446)"
         id="g18"
         style="fill:#000000;fill-opacity:0;fill-rule:nonzero;stroke:none">
        <path
           d="m 632.47183,231.56342 0,52.02712 0,52.02712 583.52817,0 0,-35.23531 -525.95856,0 0,-68.81893 z"
           id="path20"
           inkscape:connector-curvature="0" />
      </g>
      <g
         transform="matrix(0.56707273,0,0,1,12.489536,-672.64446)"
         id="g22"
         style="fill:#000000;fill-opacity:0;fill-rule:nonzero;stroke:none">
        <path
           d="m 1179.8424,124.20588 0,26.42647 0,26.42648 8.6157,0 0,-17.61765 27.5419,0 0,-35.2353 z"
           id="path24"
           inkscape:connector-curvature="0" />
      </g>
      <g
         transform="matrix(0.56707273,0,0,1,12.489536,-672.64446)"
         id="g26"
         style="fill:#000000;fill-opacity:0;fill-rule:nonzero;stroke:none">
        <path
           d="m 303.04242,283.59054 0,52.44003 0,52.44001 79.39131,0 0,-17.61762 833.56627,0 0,-35.2353 -583.52817,0 0,-52.02712 z"
           id="path28"
           inkscape:connector-curvature="0" />
      </g>
      <g
         transform="matrix(0.56707273,0,0,1,12.489536,-672.64446)"
         id="g30"
         style="fill:#000000;fill-opacity:0;fill-rule:nonzero;stroke:none">
        <path
           d="m 1096.673,36.117647 0,41.841911 0,41.841912 67.2163,0 0,-30.830882 52.1107,0 0,-35.235294 -62.4283,0 0,-17.617647 z"
           id="path32"
           inkscape:connector-curvature="0" />
      </g>
      <g
         transform="matrix(0.56707273,0,0,1,12.489536,-672.64446)"
         id="g34"
         style="fill:#000000;fill-opacity:0;fill-rule:nonzero;stroke:none">
        <path
           d="m 1188.4581,159.44118 0,17.61765 0,17.61765 27.5419,0 0,-35.2353 z"
           id="path36"
           inkscape:connector-curvature="0" />
      </g>
      <g
         transform="matrix(0.56707273,0,0,1,12.489536,-672.64446)"
         id="g38"
         style="fill:#000000;fill-opacity:0;fill-rule:nonzero;stroke:none">
        <path
           d="m 382.43373,370.85296 0,17.61762 0,17.61767 833.56627,0 0,-35.23529 z"
           id="path40"
           inkscape:connector-curvature="0" />
      </g>
      <g
         transform="matrix(0.56707273,0,0,1,12.489536,-672.64446)"
         id="g42"
         style="fill:#000000;fill-opacity:0;fill-rule:nonzero;stroke:none">
        <path
           d="m 690.04144,162.74449 0,68.81893 0,68.81893 525.95856,0 0,-35.23529 -226.73345,0 0,-17.61764 -204.97528,0 0,-84.78492 0,-10e-6 z"
           id="path44"
           inkscape:connector-curvature="0" />
      </g>
      <g
         transform="matrix(0.56707273,0,0,1,12.489536,-672.64446)"
         id="g46"
         style="fill:#000000;fill-opacity:0;fill-rule:nonzero;stroke:none">
        <path
           d="m 17.980197,467.85322 0,74.82341 0,74.82337 1198.019803,0 0,-35.23529 -1012.79345,0 0,-17.61767 -21.24964,0 0,-26.42646 -41.04449,0 0,-70.36736 z"
           id="path48"
           inkscape:connector-curvature="0" />
      </g>
      <g
         transform="matrix(0.56707273,0,0,1,12.489536,-672.64446)"
         id="g50"
         style="fill:#000000;fill-opacity:0;fill-rule:nonzero;stroke:none">
        <path
           d="m 203.20655,547.02942 0,17.61762 0,17.61767 1012.79345,0 0,-35.23529 z"
           id="path52"
           inkscape:connector-curvature="0" />
      </g>
      <g
         transform="matrix(0.56707273,0,0,1,12.489536,-672.64446)"
         id="g54"
         style="fill:#000000;fill-opacity:0;fill-rule:nonzero;stroke:none">
        <path
           d="m 784.29127,77.959558 0,84.784942 0,84.78492 204.97528,0 0,-17.61765 226.73345,0 0,-35.23529 -27.5419,0 0,-17.61765 -8.6157,0 0,-26.42648 -15.9531,0 0,-30.83088 -67.2163,0 0,-41.841912 z"
           id="path56"
           inkscape:connector-curvature="0" />
      </g>
      <g
         transform="matrix(0.56707273,0,0,1,12.489536,-672.64446)"
         id="g58"
         style="fill:#000000;fill-opacity:0;fill-rule:nonzero;stroke:none">
        <path
           d="m 181.95691,511.79412 0,26.42646 0,26.42646 21.24964,0 0,-17.61762 1012.79345,0 0,-35.2353 z"
           id="path60"
           inkscape:connector-curvature="0" />
      </g>
      <g
         transform="matrix(0.56707273,0,0,1,12.489536,-672.64446)"
         id="g62"
         style="fill:#000000;fill-opacity:0;fill-rule:nonzero;stroke:none">
        <path
           d="m 1163.8893,88.970588 0,30.830882 0,30.83088 15.9531,0 0,-26.42647 36.1576,0 0,-35.235292 z"
           id="path64"
           inkscape:connector-curvature="0" />
      </g>
      <g
         transform="matrix(0.56707273,0,0,1,12.489536,-672.64446)"
         id="g66"
         style="fill:#000000;fill-opacity:0;fill-rule:nonzero;stroke:none">
        <path
           d="m 140.91242,397.48585 0,70.36737 0,70.36736 41.04449,0 0,-26.42646 1034.04309,0 0,-35.23529 -1021.8046,0 0,-17.61766 -31.81442,0 0,-61.45532 z"
           id="path68"
           inkscape:connector-curvature="0" />
      </g>
      <g
         transform="matrix(0.56707273,0,0,1,12.489536,-672.64446)"
         id="g70"
         style="fill:#000000;fill-opacity:0;fill-rule:nonzero;stroke:none">
        <path
           d="m 1153.5717,18.5 0,17.617647 0,17.617647 62.4283,0 L 1216,18.5 z"
           id="path72"
           inkscape:connector-curvature="0" />
      </g>
      <g
         transform="matrix(0.56707273,0,0,1,12.489536,-672.64446)"
         id="g74"
         style="fill:#000000;fill-opacity:0;fill-rule:nonzero;stroke:none">
        <path
           d="m 162.38098,336.03057 0,61.45528 0,61.45532 31.81442,0 0,-17.61763 1021.8046,0 0,-35.23529 -833.56627,0 0,-17.61767 -79.39131,0 0,-52.44001 z"
           id="path76"
           inkscape:connector-curvature="0" />
      </g>
      <g
         transform="matrix(0.56707273,0,0,1,12.489536,-672.64446)"
         id="g78"
         style="fill:#000000;fill-opacity:0;fill-rule:nonzero;stroke:none">
        <path
           d="m 194.1954,441.32354 0,17.61763 0,17.61766 1021.8046,0 0,-35.23529 z"
           id="path80"
           inkscape:connector-curvature="0" />
      </g>
      <g
         transform="matrix(0.56707273,0,0,1,12.489536,-672.64446)"
         id="g82"
         style="fill:#000000;fill-opacity:0;fill-rule:nonzero;stroke:none">
        <path
           d="m 989.26655,229.91177 0,17.61765 0,17.61764 226.73345,0 0,-35.23529 z"
           id="path84"
           inkscape:connector-curvature="0" />
      </g>
      <g
         transform="matrix(0.56707273,0,0,1,12.489536,-672.64446)"
         id="g86"
         style="fill:none;stroke:#000000;stroke-width:2.65589333;stroke-linecap:butt;stroke-linejoin:miter;stroke-miterlimit:10;stroke-opacity:1;stroke-dasharray:none;stroke-dashoffset:0">
        <path
           style="stroke-width:2.65589333;stroke-miterlimit:10;stroke-dasharray:none"
           d="m 632.47183,283.59054 -329.42941,0 0,52.44003"
           id="path88"
           inkscape:connector-curvature="0" />
      </g>
      <g
         transform="matrix(0.56707273,0,0,1,12.489536,-672.64446)"
         id="g90"
         style="fill:none;stroke:#000000;stroke-width:2.65589333;stroke-linecap:butt;stroke-linejoin:miter;stroke-miterlimit:10;stroke-opacity:1;stroke-dasharray:none;stroke-dashoffset:0">
        <path
           style="stroke-width:2.65589333;stroke-miterlimit:10;stroke-dasharray:none"
           d="m 263.84464,617.5 -245.864443,0 0,-74.82337"
           id="path92"
           inkscape:connector-curvature="0" />
      </g>
      <g
         transform="matrix(0.56707273,0,0,1,12.489536,-672.64446)"
         id="g94"
         style="fill:none;stroke:#000000;stroke-width:2.65589333;stroke-linecap:butt;stroke-linejoin:miter;stroke-miterlimit:10;stroke-opacity:1;stroke-dasharray:none;stroke-dashoffset:0">
        <path
           style="stroke-width:2.65589333;stroke-miterlimit:10;stroke-dasharray:none"
           d="m 393.42222,370.85296 -10.98849,0 0,17.61762"
           id="path96"
           inkscape:connector-curvature="0" />
      </g>
      <g
         transform="matrix(0.56707273,0,0,1,12.489536,-672.64446)"
         id="g98"
         style="fill:none;stroke:#000000;stroke-width:2.65589333;stroke-linecap:butt;stroke-linejoin:miter;stroke-miterlimit:10;stroke-opacity:1;stroke-dasharray:none;stroke-dashoffset:0">
        <path
           style="stroke-width:2.65589333;stroke-miterlimit:10;stroke-dasharray:none"
           d="m 1179.8424,150.63235 -15.9531,0 0,-30.83088"
           id="path100"
           inkscape:connector-curvature="0" />
      </g>
      <g
         transform="matrix(0.56707273,0,0,1,12.489536,-672.64446)"
         id="g102"
         style="fill:none;stroke:#000000;stroke-width:2.65589333;stroke-linecap:butt;stroke-linejoin:miter;stroke-miterlimit:10;stroke-opacity:1;stroke-dasharray:none;stroke-dashoffset:0">
        <path
           style="stroke-width:2.65589333;stroke-miterlimit:10;stroke-dasharray:none"
           d="m 873.53407,300.38235 -183.49263,0 0,-68.81893"
           id="path104"
           inkscape:connector-curvature="0" />
      </g>
      <g
         transform="matrix(0.56707273,0,0,1,12.489536,-672.64446)"
         id="g106"
         style="fill:none;stroke:#000000;stroke-width:2.65589333;stroke-linecap:butt;stroke-linejoin:miter;stroke-miterlimit:10;stroke-opacity:1;stroke-dasharray:none;stroke-dashoffset:0">
        <path
           style="stroke-width:2.65589333;stroke-miterlimit:10;stroke-dasharray:none"
           d="m 303.04242,336.03057 -140.66144,0 0,61.45528"
           id="path108"
           inkscape:connector-curvature="0" />
      </g>
      <g
         transform="matrix(0.56707273,0,0,1,12.489536,-672.64446)"
         id="g110"
         style="fill:none;stroke:#000000;stroke-width:2.65589333;stroke-linecap:butt;stroke-linejoin:miter;stroke-miterlimit:10;stroke-opacity:1;stroke-dasharray:none;stroke-dashoffset:0">
        <path
           style="stroke-width:2.65589333;stroke-miterlimit:10;stroke-dasharray:none"
           d="m 309.42649,476.55883 -115.23109,0 0,-17.61766"
           id="path112"
           inkscape:connector-curvature="0" />
      </g>
      <g
         transform="matrix(0.56707273,0,0,1,12.489536,-672.64446)"
         id="g114"
         style="fill:none;stroke:#000000;stroke-width:2.65589333;stroke-linecap:butt;stroke-linejoin:miter;stroke-miterlimit:10;stroke-opacity:1;stroke-dasharray:none;stroke-dashoffset:0">
        <path
           style="stroke-width:2.65589333;stroke-miterlimit:10;stroke-dasharray:none"
           d="m 1212.4054,159.44118 -23.9473,0 0,17.61765"
           id="path116"
           inkscape:connector-curvature="0" />
      </g>
      <g
         transform="matrix(0.56707273,0,0,1,12.489536,-672.64446)"
         id="g118"
         style="fill:none;stroke:#000000;stroke-width:2.65589333;stroke-linecap:butt;stroke-linejoin:miter;stroke-miterlimit:10;stroke-opacity:1;stroke-dasharray:none;stroke-dashoffset:0">
        <path
           style="stroke-width:2.65589333;stroke-miterlimit:10;stroke-dasharray:none"
           d="m 996.9571,229.91177 -7.69055,0 0,17.61765"
           id="path120"
           inkscape:connector-curvature="0" />
      </g>
      <g
         transform="matrix(0.56707273,0,0,1,12.489536,-672.64446)"
         id="g122"
         style="fill:none;stroke:#000000;stroke-width:2.65589333;stroke-linecap:butt;stroke-linejoin:miter;stroke-miterlimit:10;stroke-opacity:1;stroke-dasharray:none;stroke-dashoffset:0">
        <path
           style="stroke-width:2.65589333;stroke-miterlimit:10;stroke-dasharray:none"
           d="m 1195.4142,88.970588 -31.5249,0 0,30.830882"
           id="path124"
           inkscape:connector-curvature="0" />
      </g>
      <g
         transform="matrix(0.56707273,0,0,1,12.489536,-672.64446)"
         id="g126"
         style="fill:none;stroke:#000000;stroke-width:2.65589333;stroke-linecap:butt;stroke-linejoin:miter;stroke-miterlimit:10;stroke-opacity:1;stroke-dasharray:none;stroke-dashoffset:0">
        <path
           style="stroke-width:2.65589333;stroke-miterlimit:10;stroke-dasharray:none"
           d="m 1188.4581,177.05883 -8.6157,0 0,-26.42648"
           id="path128"
           inkscape:connector-curvature="0" />
      </g>
      <g
         transform="matrix(0.56707273,0,0,1,12.489536,-672.64446)"
         id="g130"
         style="fill:none;stroke:#000000;stroke-width:2.65589333;stroke-linecap:butt;stroke-linejoin:miter;stroke-miterlimit:10;stroke-opacity:1;stroke-dasharray:none;stroke-dashoffset:0">
        <path
           style="stroke-width:2.65589333;stroke-miterlimit:10;stroke-dasharray:none"
           d="m 690.04144,231.56342 -57.56961,0 0,52.02712"
           id="path132"
           inkscape:connector-curvature="0" />
      </g>
      <g
         transform="matrix(0.56707273,0,0,1,12.489536,-672.64446)"
         id="g134"
         style="fill:none;stroke:#000000;stroke-width:2.65589333;stroke-linecap:butt;stroke-linejoin:miter;stroke-miterlimit:10;stroke-opacity:1;stroke-dasharray:none;stroke-dashoffset:0">
        <path
           style="stroke-width:2.65589333;stroke-miterlimit:10;stroke-dasharray:none"
           d="m 293.13439,547.02942 -89.92784,0 0,17.61762"
           id="path136"
           inkscape:connector-curvature="0" />
      </g>
      <g
         transform="matrix(0.56707273,0,0,1,12.489536,-672.64446)"
         id="g138"
         style="fill:none;stroke:#000000;stroke-width:2.65589333;stroke-linecap:butt;stroke-linejoin:miter;stroke-miterlimit:10;stroke-opacity:1;stroke-dasharray:none;stroke-dashoffset:0">
        <path
           style="stroke-width:2.65589333;stroke-miterlimit:10;stroke-dasharray:none"
           d="m 1210.0609,194.67648 -21.6028,0 0,-17.61765"
           id="path140"
           inkscape:connector-curvature="0" />
      </g>
      <g
         transform="matrix(0.56707273,0,0,1,12.489536,-672.64446)"
         id="g142"
         style="fill:none;stroke:#000000;stroke-width:2.65589333;stroke-linecap:butt;stroke-linejoin:miter;stroke-miterlimit:10;stroke-opacity:1;stroke-dasharray:none;stroke-dashoffset:0">
        <path
           style="stroke-width:2.65589333;stroke-miterlimit:10;stroke-dasharray:none"
           d="m 1163.8893,119.80147 -67.2163,0 0,-41.841912"
           id="path144"
           inkscape:connector-curvature="0" />
      </g>
      <g
         transform="matrix(0.56707273,0,0,1,12.489536,-672.64446)"
         id="g146"
         style="fill:none;stroke:#000000;stroke-width:2.65589333;stroke-linecap:butt;stroke-linejoin:miter;stroke-miterlimit:10;stroke-opacity:1;stroke-dasharray:none;stroke-dashoffset:0">
        <path
           style="stroke-width:2.65589333;stroke-miterlimit:10;stroke-dasharray:none"
           d="m 140.91242,467.85322 -122.932223,0 0,74.82341"
           id="path148"
           inkscape:connector-curvature="0" />
      </g>
      <g
         transform="matrix(0.56707273,0,0,1,12.489536,-672.64446)"
         id="g150"
         style="fill:none;stroke:#000000;stroke-width:2.65589333;stroke-linecap:butt;stroke-linejoin:miter;stroke-miterlimit:10;stroke-opacity:1;stroke-dasharray:none;stroke-dashoffset:0">
        <path
           style="stroke-width:2.65589333;stroke-miterlimit:10;stroke-dasharray:none"
           d="m 162.38098,397.48585 -21.46856,0 0,70.36737"
           id="path152"
           inkscape:connector-curvature="0" />
      </g>
      <g
         transform="matrix(0.56707273,0,0,1,12.489536,-672.64446)"
         id="g154"
         style="fill:none;stroke:#000000;stroke-width:2.65589333;stroke-linecap:butt;stroke-linejoin:miter;stroke-miterlimit:10;stroke-opacity:1;stroke-dasharray:none;stroke-dashoffset:0">
        <path
           style="stroke-width:2.65589333;stroke-miterlimit:10;stroke-dasharray:none"
           d="m 194.1954,458.94117 -31.81442,0 0,-61.45532"
           id="path156"
           inkscape:connector-curvature="0" />
      </g>
      <g
         transform="matrix(0.56707273,0,0,1,12.489536,-672.64446)"
         id="g158"
         style="fill:none;stroke:#000000;stroke-width:2.65589333;stroke-linecap:butt;stroke-linejoin:miter;stroke-miterlimit:10;stroke-opacity:1;stroke-dasharray:none;stroke-dashoffset:0">
        <path
           style="stroke-width:2.65589333;stroke-miterlimit:10;stroke-dasharray:none"
           d="m 997.31026,265.14706 -8.04371,0 0,-17.61764"
           id="path160"
           inkscape:connector-curvature="0" />
      </g>
      <g
         transform="matrix(0.56707273,0,0,1,12.489536,-672.64446)"
         id="g162"
         style="fill:none;stroke:#000000;stroke-width:2.65589333;stroke-linecap:butt;stroke-linejoin:miter;stroke-miterlimit:10;stroke-opacity:1;stroke-dasharray:none;stroke-dashoffset:0">
        <path
           style="stroke-width:2.65589333;stroke-miterlimit:10;stroke-dasharray:none"
           d="m 989.26655,247.52942 -204.97528,0 0,-84.78493"
           id="path164"
           inkscape:connector-curvature="0" />
      </g>
      <g
         transform="matrix(0.56707273,0,0,1,12.489536,-672.64446)"
         id="g166"
         style="fill:none;stroke:#000000;stroke-width:2.65589333;stroke-linecap:butt;stroke-linejoin:miter;stroke-miterlimit:10;stroke-opacity:1;stroke-dasharray:none;stroke-dashoffset:0">
        <path
           style="stroke-width:2.65589333;stroke-miterlimit:10;stroke-dasharray:none"
           d="m 371.8548,582.26471 -168.64825,0 0,-17.61767"
           id="path168"
           inkscape:connector-curvature="0" />
      </g>
      <g
         transform="matrix(0.56707273,0,0,1,12.489536,-672.64446)"
         id="g170"
         style="fill:none;stroke:#000000;stroke-width:2.65589333;stroke-linecap:butt;stroke-linejoin:miter;stroke-miterlimit:10;stroke-opacity:1;stroke-dasharray:none;stroke-dashoffset:0">
        <path
           style="stroke-width:2.65589333;stroke-miterlimit:10;stroke-dasharray:none"
           d="m 792.70919,335.61766 -160.23736,0 0,-52.02712"
           id="path172"
           inkscape:connector-curvature="0" />
      </g>
      <g
         transform="matrix(0.56707273,0,0,1,12.489536,-672.64446)"
         id="g174"
         style="fill:none;stroke:#000000;stroke-width:2.65589333;stroke-linecap:butt;stroke-linejoin:miter;stroke-miterlimit:10;stroke-opacity:1;stroke-dasharray:none;stroke-dashoffset:0">
        <path
           style="stroke-width:2.65589333;stroke-miterlimit:10;stroke-dasharray:none"
           d="m 1096.673,77.959558 -312.38173,0 0,84.784932"
           id="path176"
           inkscape:connector-curvature="0" />
      </g>
      <g
         transform="matrix(0.56707273,0,0,1,12.489536,-672.64446)"
         id="g178"
         style="fill:none;stroke:#000000;stroke-width:2.65589333;stroke-linecap:butt;stroke-linejoin:miter;stroke-miterlimit:10;stroke-opacity:1;stroke-dasharray:none;stroke-dashoffset:0">
        <path
           style="stroke-width:2.65589333;stroke-miterlimit:10;stroke-dasharray:none"
           d="m 378.3801,441.32354 -184.1847,0 0,17.61763"
           id="path180"
           inkscape:connector-curvature="0" />
      </g>
      <g
         transform="matrix(0.56707273,0,0,1,12.489536,-672.64446)"
         id="g182"
         style="fill:none;stroke:#000000;stroke-width:2.65589333;stroke-linecap:butt;stroke-linejoin:miter;stroke-miterlimit:10;stroke-opacity:1;stroke-dasharray:none;stroke-dashoffset:0">
        <path
           style="stroke-width:2.65589333;stroke-miterlimit:10;stroke-dasharray:none"
           d="m 1216,124.20588 -36.1576,0 0,26.42647"
           id="path184"
           inkscape:connector-curvature="0" />
      </g>
      <g
         transform="matrix(0.56707273,0,0,1,12.489536,-672.64446)"
         id="g186"
         style="fill:none;stroke:#000000;stroke-width:2.65589333;stroke-linecap:butt;stroke-linejoin:miter;stroke-miterlimit:10;stroke-opacity:1;stroke-dasharray:none;stroke-dashoffset:0">
        <path
           style="stroke-width:2.65589333;stroke-miterlimit:10;stroke-dasharray:none"
           d="m 1212.6243,53.735294 -59.0526,0 0,-17.617647"
           id="path188"
           inkscape:connector-curvature="0" />
      </g>
      <g
         transform="matrix(0.56707273,0,0,1,12.489536,-672.64446)"
         id="g190"
         style="fill:none;stroke:#000000;stroke-width:2.65589333;stroke-linecap:butt;stroke-linejoin:miter;stroke-miterlimit:10;stroke-opacity:1;stroke-dasharray:none;stroke-dashoffset:0">
        <path
           style="stroke-width:2.65589333;stroke-miterlimit:10;stroke-dasharray:none"
           d="m 382.43373,388.47058 -79.39131,0 0,-52.44001"
           id="path192"
           inkscape:connector-curvature="0" />
      </g>
      <g
         transform="matrix(0.56707273,0,0,1,12.489536,-672.64446)"
         id="g194"
         style="fill:none;stroke:#000000;stroke-width:2.65589333;stroke-linecap:butt;stroke-linejoin:miter;stroke-miterlimit:10;stroke-opacity:1;stroke-dasharray:none;stroke-dashoffset:0">
        <path
           style="stroke-width:2.65589333;stroke-miterlimit:10;stroke-dasharray:none"
           d="m 6,542.67661 11.980198,0"
           id="path196"
           inkscape:connector-curvature="0" />
      </g>
      <g
         transform="matrix(0.56707273,0,0,1,12.489536,-672.64446)"
         id="g198"
         style="fill:none;stroke:#000000;stroke-width:2.65589333;stroke-linecap:butt;stroke-linejoin:miter;stroke-miterlimit:10;stroke-opacity:1;stroke-dasharray:none;stroke-dashoffset:0">
        <path
           style="stroke-width:2.65589333;stroke-miterlimit:10;stroke-dasharray:none"
           d="m 203.20655,564.64704 -21.24964,0 0,-26.42646"
           id="path200"
           inkscape:connector-curvature="0" />
      </g>
      <g
         transform="matrix(0.56707273,0,0,1,12.489536,-672.64446)"
         id="g202"
         style="fill:none;stroke:#000000;stroke-width:2.65589333;stroke-linecap:butt;stroke-linejoin:miter;stroke-miterlimit:10;stroke-opacity:1;stroke-dasharray:none;stroke-dashoffset:0">
        <path
           style="stroke-width:2.65589333;stroke-miterlimit:10;stroke-dasharray:none"
           d="m 784.29127,162.74449 -94.24983,0 0,68.81893"
           id="path204"
           inkscape:connector-curvature="0" />
      </g>
      <g
         transform="matrix(0.56707273,0,0,1,12.489536,-672.64446)"
         id="g206"
         style="fill:none;stroke:#000000;stroke-width:2.65589333;stroke-linecap:butt;stroke-linejoin:miter;stroke-miterlimit:10;stroke-opacity:1;stroke-dasharray:none;stroke-dashoffset:0">
        <path
           style="stroke-width:2.65589333;stroke-miterlimit:10;stroke-dasharray:none"
           d="m 1202.7516,18.5 -49.1799,0 0,17.617647"
           id="path208"
           inkscape:connector-curvature="0" />
      </g>
      <g
         transform="matrix(0.56707273,0,0,1,12.489536,-672.64446)"
         id="g210"
         style="fill:none;stroke:#000000;stroke-width:2.65589333;stroke-linecap:butt;stroke-linejoin:miter;stroke-miterlimit:10;stroke-opacity:1;stroke-dasharray:none;stroke-dashoffset:0">
        <path
           style="stroke-width:2.65589333;stroke-miterlimit:10;stroke-dasharray:none"
           d="m 181.95691,538.22058 -41.04449,0 0,-70.36736"
           id="path212"
           inkscape:connector-curvature="0" />
      </g>
      <g
         transform="matrix(0.56707273,0,0,1,12.489536,-672.64446)"
         id="g214"
         style="fill:none;stroke:#000000;stroke-width:2.65589333;stroke-linecap:butt;stroke-linejoin:miter;stroke-miterlimit:10;stroke-opacity:1;stroke-dasharray:none;stroke-dashoffset:0">
        <path
           style="stroke-width:2.65589333;stroke-miterlimit:10;stroke-dasharray:none"
           d="m 278.92559,511.79412 -96.96868,0 0,26.42646"
           id="path216"
           inkscape:connector-curvature="0" />
      </g>
      <g
         transform="matrix(0.56707273,0,0,1,12.489536,-672.64446)"
         id="g218"
         style="fill:none;stroke:#000000;stroke-width:2.65589333;stroke-linecap:butt;stroke-linejoin:miter;stroke-miterlimit:10;stroke-opacity:1;stroke-dasharray:none;stroke-dashoffset:0">
        <path
           style="stroke-width:2.65589333;stroke-miterlimit:10;stroke-dasharray:none"
           d="m 391.91803,406.08825 -9.4843,0 0,-17.61767"
           id="path220"
           inkscape:connector-curvature="0" />
      </g>
      <g
         transform="matrix(0.56707273,0,0,1,12.489536,-672.64446)"
         id="g222"
         style="fill:none;stroke:#000000;stroke-width:2.65589333;stroke-linecap:butt;stroke-linejoin:miter;stroke-miterlimit:10;stroke-opacity:1;stroke-dasharray:none;stroke-dashoffset:0">
        <path
           style="stroke-width:2.65589333;stroke-miterlimit:10;stroke-dasharray:none"
           d="m 1153.5717,36.117647 -56.8987,0 0,41.841911"
           id="path224"
           inkscape:connector-curvature="0" />
      </g>
    </g>
    <g
       style="stroke-width:1;stroke-linecap:square;stroke-linejoin:miter;stroke-miterlimit:10;stroke-dasharray:none;stroke-dashoffset:0"
       id="g226"
       transform="matrix(1.3573654,0,0,1.3573654,108.0007,952.73827)">
      <g
         style="fill:#000000;fill-opacity:1;fill-rule:nonzero;stroke:none"
         id="g228">
        <path
           inkscape:connector-curvature="0"
           id="path230"
           d="m 1.8652344,20 0,-14.453125 4.375,0 q 2.0800781,0 3.1884765,0.9179687 1.1083981,0.9179688 1.1083981,2.6660157 0,2.8906246 -2.9199215,4.1015626 L 12.441406,20 9.921875,20 5.8105469,13.886719 l -1.9140625,0 0,6.113281 z m 2.03125,-7.646484 0.6640625,0 q 3.8671875,0 3.8671875,-3.0371097 0,-2.2363282 -3.2421875,-2.2363282 l -1.2890625,0 z m 16.8066406,8.007812 q -3.369141,0 -5.205078,-1.977539 -1.835938,-1.977539 -1.835938,-5.600586 0,-3.6132811 1.870118,-5.6054686 1.870117,-1.9921875 5.268554,-1.9921875 1.94336,0 4.550781,0.6347656 l 0,1.9238281 Q 22.382812,6.71875 20.771484,6.71875 q -2.353515,0 -3.642578,1.5917969 -1.289062,1.5917969 -1.289062,4.4921871 0,2.763672 1.376953,4.360352 1.376953,1.59668 3.759765,1.59668 2.050782,0 4.394532,-1.259766 l 0,1.757812 q -2.138672,1.103516 -4.667969,1.103516 z m 13.837891,0 q -3.369141,0 -5.205079,-1.977539 Q 27.5,16.40625 27.5,12.783203 q 0,-3.6132811 1.870117,-5.6054686 1.870117,-1.9921875 5.268555,-1.9921875 1.943359,0 4.550781,0.6347656 l 0,1.9238281 Q 36.220703,6.71875 34.609375,6.71875 q -2.353516,0 -3.642578,1.5917969 -1.289063,1.5917969 -1.289063,4.4921871 0,2.763672 1.376953,4.360352 1.376954,1.59668 3.759766,1.59668 2.050781,0 4.394531,-1.259766 l 0,1.757812 q -2.138672,1.103516 -4.667968,1.103516 z m 7.8125,-0.46875 0,-1.796875 q 2.070312,0.820313 3.261718,0.820313 1.376953,0 2.241211,-0.805664 0.864258,-0.805665 0.864258,-2.084961 0,-3.046875 -4.267578,-3.046875 l -0.761719,0 0,-1.298828 0.673828,-0.0098 q 4.003907,0 4.003907,-2.8222657 0,-2.2167969 -2.636719,-2.2167969 -1.445313,0 -3.183594,0.8105468 l 0,-1.6796875 q 1.708984,-0.5761718 3.320313,-0.5761718 4.433593,0 4.433593,3.3496094 0,2.5488277 -3.017578,3.6328127 3.496094,0.810547 3.496094,3.828125 0,2.041015 -1.347656,3.203125 -1.347657,1.162109 -3.701172,1.162109 -1.337891,0 -3.378906,-0.46875 z m 16.884765,0.46875 q -2.236328,0 -3.618164,-2.104492 -1.381836,-2.104492 -1.381836,-5.493164 0,-3.4179689 1.391602,-5.498047 1.391601,-2.0800781 3.666992,-2.0800781 2.275391,0 3.666992,2.0800781 1.391602,2.0800781 1.391602,5.46875 0,3.476562 -1.391602,5.551758 -1.391601,2.075195 -3.725586,2.075195 z m 0.01953,-1.445312 q 3.056641,0 3.056641,-6.210938 0,-6.0742186 -3.017578,-6.0742186 -3.007813,0 -3.007813,6.1328126 0,6.152344 2.96875,6.152344 z M 68.623047,20 q 0.283203,-1.689453 0.805664,-2.919922 0.522461,-1.230469 1.850586,-3.378906 l 3.945312,-6.3476564 -7.441406,0 0,-1.8066406 9.277344,0 0,1.8066406 Q 71.503906,15.546875 70.839844,20 z" />
      </g>
      <!-- drawing style -->
    </g>
    <g
       style="stroke-width:1;stroke-linecap:square;stroke-linejoin:miter;stroke-miterlimit:10;stroke-dasharray:none;stroke-dashoffset:0"
       id="g232"
       transform="matrix(1.3573654,0,0,1.3573654,208.35785,617.94804)">
      <g
         style="fill:#006400;fill-opacity:1;fill-rule:nonzero;stroke:none"
         id="g234">
        <path
           inkscape:connector-curvature="0"
           id="path236"
           d="m 1.8652344,20 0,-14.453125 2.8417968,0 4.0039063,11.181641 4.1210935,-11.181641 2.539063,0 0,14.453125 -1.914063,0 0,-11.7578125 -3.9843747,10.7910155 -1.9824219,0 L 3.6230469,8.2128906 3.6230469,20 z m 17.2167966,0 0,-14.453125 2.050781,0 0,14.453125 z m 9.208985,0 0,-12.9199219 -5.126954,0 0,-1.5332031 12.304688,0 0,1.5332031 -5.126953,0 0,12.9199219 z m 9.61914,-0.08789 0,-1.630859 q 1.835938,0.634766 3.125,0.634766 1.796875,0 2.807617,-1.528321 1.010743,-1.52832 1.010743,-4.252929 -1.464844,1.80664 -3.330079,1.80664 -1.826171,0 -3.095703,-1.342773 -1.269531,-1.342774 -1.269531,-3.276367 0,-2.2167972 1.352539,-3.6767582 1.352539,-1.4599609 3.40332,-1.4599609 2.353516,0 3.710938,1.8896484 1.357422,1.8896485 1.357422,5.1708987 0,3.730469 -1.655274,5.922851 -1.655273,2.192383 -4.477539,2.192383 -1.132812,0 -2.939453,-0.449219 z m 1.171875,-9.9707027 q 0,1.6796877 0.747071,2.6464847 0.74707,0.966797 2.045898,0.966797 1.220703,0 2.084961,-0.830079 0.864258,-0.830078 0.864258,-2.001953 0,-1.8457029 -0.834961,-2.9736326 -0.834961,-1.1279297 -2.192383,-1.1279297 -1.259766,0 -1.987305,0.8935547 -0.727539,0.8935547 -0.727539,2.4267579 z m 11.230469,9.9511717 0,-1.796875 q 2.070312,0.820313 3.261719,0.820313 1.376953,0 2.241211,-0.805664 0.864257,-0.805665 0.864257,-2.084961 0,-3.046875 -4.267578,-3.046875 l -0.761718,0 0,-1.298828 0.673828,-0.0098 q 4.003906,0 4.003906,-2.8222657 0,-2.2167969 -2.636719,-2.2167969 -1.445312,0 -3.183594,0.8105468 l 0,-1.6796875 q 1.708985,-0.5761718 3.320313,-0.5761718 4.433594,0 4.433594,3.3496094 0,2.5488277 -3.017578,3.6328127 3.496093,0.810547 3.496093,3.828125 0,2.041015 -1.347656,3.203125 -1.347656,1.162109 -3.701172,1.162109 -1.33789,0 -3.378906,-0.46875 z M 63.935547,20 l 0,-1.445313 2.890625,0 0,-11.4062495 -2.890625,0.7226562 0,-1.484375 4.824219,-1.2011718 0,13.3691401 2.890625,0 0,1.445313 z m 11.669922,-0.107422 0,-1.796875 q 2.070312,0.820313 3.261718,0.820313 1.376954,0 2.241211,-0.805664 0.864258,-0.805665 0.864258,-2.084961 0,-3.046875 -4.267578,-3.046875 l -0.761719,0 0,-1.298828 0.673828,-0.0098 q 4.003907,0 4.003907,-2.8222657 0,-2.2167969 -2.636719,-2.2167969 -1.445313,0 -3.183594,0.8105468 l 0,-1.6796875 q 1.708985,-0.5761718 3.320313,-0.5761718 4.433593,0 4.433593,3.3496094 0,2.5488277 -3.017578,3.6328127 3.496094,0.810547 3.496094,3.828125 0,2.041015 -1.347656,3.203125 -1.347656,1.162109 -3.701172,1.162109 -1.337891,0 -3.378906,-0.46875 z" />
      </g>
      <!-- drawing style -->
    </g>
    <g
       style="stroke-width:1;stroke-linecap:square;stroke-linejoin:miter;stroke-miterlimit:10;stroke-dasharray:none;stroke-dashoffset:0"
       id="g238"
       transform="matrix(1.3573654,0,0,1.3573654,195.86679,904.91109)">
      <g
         style="fill:#000000;fill-opacity:1;fill-rule:nonzero;stroke:none"
         id="g240">
        <path
           inkscape:connector-curvature="0"
           id="path242"
           d="m 8.0566406,20.361328 q -3.3691406,0 -5.2050781,-1.977539 Q 1.015625,16.40625 1.015625,12.783203 q 0,-3.6132811 1.8701172,-5.6054686 1.8701172,-1.9921875 5.2685547,-1.9921875 1.9433591,0 4.5507811,0.6347656 l 0,1.9238281 Q 9.7363281,6.71875 8.125,6.71875 q -2.3535156,0 -3.6425781,1.5917969 -1.2890625,1.5917969 -1.2890625,4.4921871 0,2.763672 1.3769531,4.360352 1.3769531,1.59668 3.7597656,1.59668 2.0507809,0 4.3945309,-1.259766 l 0,1.757812 q -2.138671,1.103516 -4.6679684,1.103516 z m 13.8378904,0 q -3.36914,0 -5.205078,-1.977539 -1.835937,-1.977539 -1.835937,-5.600586 0,-3.6132811 1.870117,-5.6054686 1.870117,-1.9921875 5.268554,-1.9921875 1.94336,0 4.550782,0.6347656 l 0,1.9238281 Q 23.574219,6.71875 21.962891,6.71875 q -2.353516,0 -3.642579,1.5917969 -1.289062,1.5917969 -1.289062,4.4921871 0,2.763672 1.376953,4.360352 1.376953,1.59668 3.759766,1.59668 2.050781,0 4.394531,-1.259766 l 0,1.757812 q -2.138672,1.103516 -4.667969,1.103516 z m 8.056641,-0.449219 0,-1.630859 q 1.835937,0.634766 3.125,0.634766 1.796875,0 2.807617,-1.528321 1.010742,-1.52832 1.010742,-4.252929 -1.464844,1.80664 -3.330078,1.80664 -1.826172,0 -3.095703,-1.342773 -1.269531,-1.342774 -1.269531,-3.276367 0,-2.2167972 1.352539,-3.6767582 1.352539,-1.4599609 3.40332,-1.4599609 2.353516,0 3.710938,1.8896484 1.357421,1.8896485 1.357421,5.1708987 0,3.730469 -1.655273,5.922851 -1.655273,2.192383 -4.477539,2.192383 -1.132813,0 -2.939453,-0.449219 z m 1.171875,-9.9707027 q 0,1.6796877 0.74707,2.6464847 0.74707,0.966797 2.045899,0.966797 1.220703,0 2.084961,-0.830079 0.864257,-0.830078 0.864257,-2.001953 0,-1.8457029 -0.834961,-2.9736326 -0.834961,-1.1279297 -2.192382,-1.1279297 -1.259766,0 -1.987305,0.8935547 -0.727539,0.8935547 -0.727539,2.4267579 z m 11.474609,9.9707027 0,-1.630859 q 1.835938,0.634766 3.125,0.634766 1.796875,0 2.807617,-1.528321 1.010743,-1.52832 1.010743,-4.252929 -1.464844,1.80664 -3.330079,1.80664 -1.826171,0 -3.095703,-1.342773 -1.269531,-1.342774 -1.269531,-3.276367 0,-2.2167972 1.352539,-3.6767582 1.352539,-1.4599609 3.40332,-1.4599609 2.353516,0 3.710938,1.8896484 1.357422,1.8896485 1.357422,5.1708987 0,3.730469 -1.655274,5.922851 -1.655273,2.192383 -4.477539,2.192383 -1.132812,0 -2.939453,-0.449219 z m 1.171875,-9.9707027 q 0,1.6796877 0.747071,2.6464847 0.74707,0.966797 2.045898,0.966797 1.220703,0 2.084961,-0.830079 0.864258,-0.830078 0.864258,-2.001953 0,-1.8457029 -0.834961,-2.9736326 -0.834961,-1.1279297 -2.192383,-1.1279297 -1.259766,0 -1.987305,0.8935547 -0.727539,0.8935547 -0.727539,2.4267579 z m 15.46875,10.4199217 q -2.236328,0 -3.618164,-2.104492 -1.381836,-2.104492 -1.381836,-5.493164 0,-3.4179689 1.391602,-5.498047 1.391601,-2.0800781 3.666992,-2.0800781 2.275391,0 3.666992,2.0800781 1.391602,2.0800781 1.391602,5.46875 0,3.476562 -1.391602,5.551758 -1.391601,2.075195 -3.725586,2.075195 z m 0.01953,-1.445312 q 3.056641,0 3.056641,-6.210938 0,-6.0742186 -3.017578,-6.0742186 -3.007813,0 -3.007813,6.1328126 0,6.152344 2.96875,6.152344 z M 67.275391,20 l 0,-1.689453 q 0.839843,-1.962891 3.398437,-4.277344 l 1.103516,-0.986328 q 2.128906,-1.923828 2.128906,-3.8183594 0,-1.2109375 -0.727539,-1.9042969 -0.727539,-0.6933593 -1.99707,-0.6933593 -1.503907,0 -3.544922,1.1621093 l 0,-1.6992187 q 1.923828,-0.9082031 3.818359,-0.9082031 2.03125,0 3.261719,1.09375 1.230469,1.09375 1.230469,2.9003906 0,1.2988285 -0.620118,2.3046875 -0.620117,1.005859 -2.30957,2.441406 l -0.742187,0.634766 q -2.314454,1.96289 -2.675782,3.75 l 6.279297,0 0,1.689453 z" />
      </g>
      <!-- drawing style -->
    </g>
    <g
       style="stroke-width:1;stroke-linecap:square;stroke-linejoin:miter;stroke-miterlimit:10;stroke-dasharray:none;stroke-dashoffset:0"
       id="g244"
       transform="matrix(1.3573654,0,0,1.3573654,578.07754,522.2937)">
      <g
         style="fill:#00c800;fill-opacity:1;fill-rule:nonzero;stroke:none"
         id="g246">
        <path
           inkscape:connector-curvature="0"
           id="path248"
           d="m 4.6972656,20.361328 q -1.4550781,0 -3.7207031,-0.634766 l 0,-2.03125 q 2.4414063,1.132813 4.0136719,1.132813 1.2109375,0 1.9482422,-0.634766 0.7373046,-0.634765 0.7373046,-1.669922 0,-0.849609 -0.4833984,-1.445312 Q 6.7089844,14.482422 5.4101562,13.75 L 4.4140625,13.173828 Q 2.5683594,12.119141 1.8115234,11.186523 1.0546875,10.253906 1.0546875,9.0136719 q 0,-1.6699219 1.2109375,-2.7490235 1.2109375,-1.0791015 3.0859375,-1.0791015 1.6699219,0 3.5253906,0.5566406 l 0,1.875 Q 6.5917969,6.71875 5.46875,6.71875 q -1.0644531,0 -1.7578125,0.5664062 -0.6933594,0.5664063 -0.6933594,1.4257813 0,0.7226563 0.5078125,1.2792969 0.5078125,0.5566406 1.8554688,1.3281246 l 1.0351562,0.585938 q 1.875,1.064453 2.6171875,2.011719 0.7421875,0.947265 0.7421875,2.27539 0,1.884766 -1.3916015,3.027344 -1.3916016,1.142578 -3.6865235,1.142578 z m 10.7714844,0 q -1.455078,0 -3.720703,-0.634766 l 0,-2.03125 q 2.441406,1.132813 4.013672,1.132813 1.210937,0 1.948242,-0.634766 0.737305,-0.634765 0.737305,-1.669922 0,-0.849609 -0.483399,-1.445312 Q 17.480469,14.482422 16.181641,13.75 l -0.996094,-0.576172 q -1.845703,-1.054687 -2.602539,-1.987305 -0.756836,-0.932617 -0.756836,-2.1728511 0,-1.6699219 1.210937,-2.7490235 1.210938,-1.0791015 3.085938,-1.0791015 1.669922,0 3.52539,0.5566406 l 0,1.875 Q 17.363281,6.71875 16.240234,6.71875 q -1.064453,0 -1.757812,0.5664062 -0.693359,0.5664063 -0.693359,1.4257813 0,0.7226563 0.507812,1.2792969 0.507813,0.5566406 1.855469,1.3281246 l 1.035156,0.585938 q 1.875,1.064453 2.617187,2.011719 0.742188,0.947265 0.742188,2.27539 0,1.884766 -1.391602,3.027344 -1.391601,1.142578 -3.686523,1.142578 z M 24.550781,20 l 0,-1.445313 2.890625,0 0,-11.4062495 -2.890625,0.7226562 0,-1.484375 4.824219,-1.2011718 0,13.3691401 2.890625,0 0,1.445313 z m 11.298828,0 0,-1.689453 q 0.839844,-1.962891 3.398438,-4.277344 l 1.103515,-0.986328 q 2.128907,-1.923828 2.128907,-3.8183594 0,-1.2109375 -0.727539,-1.9042969 -0.727539,-0.6933593 -1.997071,-0.6933593 -1.503906,0 -3.544922,1.1621093 l 0,-1.6992187 q 1.923829,-0.9082031 3.81836,-0.9082031 2.03125,0 3.261719,1.09375 1.230468,1.09375 1.230468,2.9003906 0,1.2988285 -0.620117,2.3046875 -0.620117,1.005859 -2.30957,2.441406 l -0.742188,0.634766 q -2.314453,1.96289 -2.675781,3.75 l 6.279297,0 0,1.689453 z m 17.25586,0.361328 q -2.236328,0 -3.618164,-2.104492 -1.381836,-2.104492 -1.381836,-5.493164 0,-3.4179689 1.391601,-5.498047 1.391602,-2.0800781 3.666992,-2.0800781 2.275391,0 3.666993,2.0800781 1.391601,2.0800781 1.391601,5.46875 0,3.476562 -1.391601,5.551758 -1.391602,2.075195 -3.725586,2.075195 z M 53.125,18.916016 q 3.056641,0 3.056641,-6.210938 0,-6.0742186 -3.017579,-6.0742186 -3.007812,0 -3.007812,6.1328126 0,6.152344 2.96875,6.152344 z" />
      </g>
      <!-- drawing style -->
    </g>
    <g
       style="stroke-width:1;stroke-linecap:square;stroke-linejoin:miter;stroke-miterlimit:10;stroke-dasharray:none;stroke-dashoffset:0"
       id="g250"
       transform="matrix(1.3573654,0,0,1.3573654,515.36318,570.12088)">
      <g
         style="fill:#00c800;fill-opacity:1;fill-rule:nonzero;stroke:none"
         id="g252">
        <path
           inkscape:connector-curvature="0"
           id="path254"
           d="m 1.8652344,20 0,-14.453125 2.8417968,0 4.0039063,11.181641 4.1210935,-11.181641 2.539063,0 0,14.453125 -1.914063,0 0,-11.7578125 -3.9843747,10.7910155 -1.9824219,0 L 3.6230469,8.2128906 3.6230469,20 z m 17.2167966,0 0,-14.453125 2.050781,0 0,14.453125 z m 9.208985,0 0,-12.9199219 -5.126954,0 0,-1.5332031 12.304688,0 0,1.5332031 -5.126953,0 0,12.9199219 z m 9.61914,-0.08789 0,-1.630859 q 1.835938,0.634766 3.125,0.634766 1.796875,0 2.807617,-1.528321 1.010743,-1.52832 1.010743,-4.252929 -1.464844,1.80664 -3.330079,1.80664 -1.826171,0 -3.095703,-1.342773 -1.269531,-1.342774 -1.269531,-3.276367 0,-2.2167972 1.352539,-3.6767582 1.352539,-1.4599609 3.40332,-1.4599609 2.353516,0 3.710938,1.8896484 1.357422,1.8896485 1.357422,5.1708987 0,3.730469 -1.655274,5.922851 -1.655273,2.192383 -4.477539,2.192383 -1.132812,0 -2.939453,-0.449219 z m 1.171875,-9.9707027 q 0,1.6796877 0.747071,2.6464847 0.74707,0.966797 2.045898,0.966797 1.220703,0 2.084961,-0.830079 0.864258,-0.830078 0.864258,-2.001953 0,-1.8457029 -0.834961,-2.9736326 -0.834961,-1.1279297 -2.192383,-1.1279297 -1.259766,0 -1.987305,0.8935547 -0.727539,0.8935547 -0.727539,2.4267579 z M 49.941406,20 l 0,-1.689453 q 0.839844,-1.962891 3.398438,-4.277344 l 1.103515,-0.986328 q 2.128907,-1.923828 2.128907,-3.8183594 0,-1.2109375 -0.727539,-1.9042969 -0.72754,-0.6933593 -1.997071,-0.6933593 -1.503906,0 -3.544922,1.1621093 l 0,-1.6992187 q 1.923828,-0.9082031 3.81836,-0.9082031 2.03125,0 3.261718,1.09375 1.230469,1.09375 1.230469,2.9003906 0,1.2988285 -0.620117,2.3046875 -0.620117,1.005859 -2.30957,2.441406 l -0.742188,0.634766 q -2.314453,1.96289 -2.675781,3.75 l 6.279297,0 0,1.689453 z m 13.994141,0 0,-1.445313 2.890625,0 0,-11.4062495 -2.890625,0.7226562 0,-1.484375 4.824219,-1.2011718 0,13.3691401 2.890625,0 0,1.445313 z m 12.646484,0 0,-1.445313 2.890625,0 0,-11.4062495 -2.890625,0.7226562 0,-1.484375 4.824219,-1.2011718 0,13.3691401 2.890625,0 0,1.445313 z" />
      </g>
      <!-- drawing style -->
    </g>
    <g
       style="stroke-width:1;stroke-linecap:square;stroke-linejoin:miter;stroke-miterlimit:10;stroke-dasharray:none;stroke-dashoffset:0"
       id="g256"
       transform="matrix(1.3573654,0,0,1.3573654,838.16694,283.15786)">
      <g
         style="fill:#ff9600;fill-opacity:1;fill-rule:nonzero;stroke:none"
         id="g258">
        <path
           inkscape:connector-curvature="0"
           id="path260"
           d="m 1.8652344,20 0,-14.453125 2.8417968,0 4.0039063,11.181641 4.1210935,-11.181641 2.539063,0 0,14.453125 -1.914063,0 0,-11.7578125 -3.9843747,10.7910155 -1.9824219,0 L 3.6230469,8.2128906 3.6230469,20 z m 17.2167966,0 0,-14.453125 2.050781,0 0,14.453125 z m 9.208985,0 0,-12.9199219 -5.126954,0 0,-1.5332031 12.304688,0 0,1.5332031 -5.126953,0 0,12.9199219 z m 9.61914,-0.08789 0,-1.630859 q 1.835938,0.634766 3.125,0.634766 1.796875,0 2.807617,-1.528321 1.010743,-1.52832 1.010743,-4.252929 -1.464844,1.80664 -3.330079,1.80664 -1.826171,0 -3.095703,-1.342773 -1.269531,-1.342774 -1.269531,-3.276367 0,-2.2167972 1.352539,-3.6767582 1.352539,-1.4599609 3.40332,-1.4599609 2.353516,0 3.710938,1.8896484 1.357422,1.8896485 1.357422,5.1708987 0,3.730469 -1.655274,5.922851 -1.655273,2.192383 -4.477539,2.192383 -1.132812,0 -2.939453,-0.449219 z m 1.171875,-9.9707027 q 0,1.6796877 0.747071,2.6464847 0.74707,0.966797 2.045898,0.966797 1.220703,0 2.084961,-0.830079 0.864258,-0.830078 0.864258,-2.001953 0,-1.8457029 -0.834961,-2.9736326 -0.834961,-1.1279297 -2.192383,-1.1279297 -1.259766,0 -1.987305,0.8935547 -0.727539,0.8935547 -0.727539,2.4267579 z M 49.941406,20 l 0,-1.689453 q 0.839844,-1.962891 3.398438,-4.277344 l 1.103515,-0.986328 q 2.128907,-1.923828 2.128907,-3.8183594 0,-1.2109375 -0.727539,-1.9042969 -0.72754,-0.6933593 -1.997071,-0.6933593 -1.503906,0 -3.544922,1.1621093 l 0,-1.6992187 q 1.923828,-0.9082031 3.81836,-0.9082031 2.03125,0 3.261718,1.09375 1.230469,1.09375 1.230469,2.9003906 0,1.2988285 -0.620117,2.3046875 -0.620117,1.005859 -2.30957,2.441406 l -0.742188,0.634766 q -2.314453,1.96289 -2.675781,3.75 l 6.279297,0 0,1.689453 z m 13.994141,0 0,-1.445313 2.890625,0 0,-11.4062495 -2.890625,0.7226562 0,-1.484375 4.824219,-1.2011718 0,13.3691401 2.890625,0 0,1.445313 z m 12.070312,0.05859 0,-1.71875 q 1.435547,0.576172 2.734375,0.576172 1.425782,0 2.241211,-0.839844 0.81543,-0.839844 0.81543,-2.314453 0,-3.251953 -4.482422,-3.251953 -0.507812,0 -1.064453,0.06836 l 0,-7.03125 7.314453,0 0,1.6796875 -5.625,0 0,3.8085935 q 2.783203,0 4.345703,1.279297 1.5625,1.279297 1.5625,3.544922 0,2.109375 -1.420898,3.305664 -1.420899,1.196289 -3.94043,1.196289 -1.09375,0 -2.480469,-0.302734 z" />
      </g>
      <!-- drawing style -->
    </g>
    <g
       style="stroke-width:1;stroke-linecap:square;stroke-linejoin:miter;stroke-miterlimit:10;stroke-dasharray:none;stroke-dashoffset:0"
       id="g262"
       transform="matrix(1.3573654,0,0,1.3573654,833.28775,330.98503)">
      <g
         style="fill:#ff9600;fill-opacity:1;fill-rule:nonzero;stroke:none"
         id="g264">
        <path
           inkscape:connector-curvature="0"
           id="path266"
           d="m 1.8652344,20 0,-14.453125 2.8417968,0 4.0039063,11.181641 4.1210935,-11.181641 2.539063,0 0,14.453125 -1.914063,0 0,-11.7578125 -3.9843747,10.7910155 -1.9824219,0 L 3.6230469,8.2128906 3.6230469,20 z m 17.2167966,0 0,-14.453125 2.050781,0 0,14.453125 z m 9.208985,0 0,-12.9199219 -5.126954,0 0,-1.5332031 12.304688,0 0,1.5332031 -5.126953,0 0,12.9199219 z m 9.61914,-0.08789 0,-1.630859 q 1.835938,0.634766 3.125,0.634766 1.796875,0 2.807617,-1.528321 1.010743,-1.52832 1.010743,-4.252929 -1.464844,1.80664 -3.330079,1.80664 -1.826171,0 -3.095703,-1.342773 -1.269531,-1.342774 -1.269531,-3.276367 0,-2.2167972 1.352539,-3.6767582 1.352539,-1.4599609 3.40332,-1.4599609 2.353516,0 3.710938,1.8896484 1.357422,1.8896485 1.357422,5.1708987 0,3.730469 -1.655274,5.922851 -1.655273,2.192383 -4.477539,2.192383 -1.132812,0 -2.939453,-0.449219 z m 1.171875,-9.9707027 q 0,1.6796877 0.747071,2.6464847 0.74707,0.966797 2.045898,0.966797 1.220703,0 2.084961,-0.830079 0.864258,-0.830078 0.864258,-2.001953 0,-1.8457029 -0.834961,-2.9736326 -0.834961,-1.1279297 -2.192383,-1.1279297 -1.259766,0 -1.987305,0.8935547 -0.727539,0.8935547 -0.727539,2.4267579 z m 11.230469,9.9511717 0,-1.796875 q 2.070312,0.820313 3.261719,0.820313 1.376953,0 2.241211,-0.805664 0.864257,-0.805665 0.864257,-2.084961 0,-3.046875 -4.267578,-3.046875 l -0.761718,0 0,-1.298828 0.673828,-0.0098 q 4.003906,0 4.003906,-2.8222657 0,-2.2167969 -2.636719,-2.2167969 -1.445312,0 -3.183594,0.8105468 l 0,-1.6796875 q 1.708985,-0.5761718 3.320313,-0.5761718 4.433594,0 4.433594,3.3496094 0,2.5488277 -3.017578,3.6328127 3.496093,0.810547 3.496093,3.828125 0,2.041015 -1.347656,3.203125 -1.347656,1.162109 -3.701172,1.162109 -1.33789,0 -3.378906,-0.46875 z m 16.884766,0.46875 q -2.236329,0 -3.618164,-2.104492 -1.381836,-2.104492 -1.381836,-5.493164 0,-3.4179689 1.391601,-5.498047 1.391602,-2.0800781 3.666992,-2.0800781 2.275391,0 3.666993,2.0800781 1.391601,2.0800781 1.391601,5.46875 0,3.476562 -1.391601,5.551758 -1.391602,2.075195 -3.725586,2.075195 z m 0.01953,-1.445312 q 3.05664,0 3.05664,-6.210938 0,-6.0742186 -3.017578,-6.0742186 -3.007812,0 -3.007812,6.1328126 0,6.152344 2.96875,6.152344 z M 76.582031,20 l 0,-1.445313 2.890625,0 0,-11.4062495 -2.890625,0.7226562 0,-1.484375 4.824219,-1.2011718 0,13.3691401 2.890625,0 0,1.445313 z" />
      </g>
      <!-- drawing style -->
    </g>
    <g
       style="stroke-width:1;stroke-linecap:square;stroke-linejoin:miter;stroke-miterlimit:10;stroke-dasharray:none;stroke-dashoffset:0"
       id="g268"
       transform="matrix(1.3573654,0,0,1.3573654,199.68887,713.60238)">
      <g
         style="fill:#000000;fill-opacity:1;fill-rule:nonzero;stroke:none"
         id="g270">
        <path
           inkscape:connector-curvature="0"
           id="path272"
           d="m 8.0566406,20.361328 q -3.3691406,0 -5.2050781,-1.977539 Q 1.015625,16.40625 1.015625,12.783203 q 0,-3.6132811 1.8701172,-5.6054686 1.8701172,-1.9921875 5.2685547,-1.9921875 1.9433591,0 4.5507811,0.6347656 l 0,1.9238281 Q 9.7363281,6.71875 8.125,6.71875 q -2.3535156,0 -3.6425781,1.5917969 -1.2890625,1.5917969 -1.2890625,4.4921871 0,2.763672 1.3769531,4.360352 1.3769531,1.59668 3.7597656,1.59668 2.0507809,0 4.3945309,-1.259766 l 0,1.757812 q -2.138671,1.103516 -4.6679684,1.103516 z m 13.8378904,0 q -3.36914,0 -5.205078,-1.977539 -1.835937,-1.977539 -1.835937,-5.600586 0,-3.6132811 1.870117,-5.6054686 1.870117,-1.9921875 5.268554,-1.9921875 1.94336,0 4.550782,0.6347656 l 0,1.9238281 Q 23.574219,6.71875 21.962891,6.71875 q -2.353516,0 -3.642579,1.5917969 -1.289062,1.5917969 -1.289062,4.4921871 0,2.763672 1.376953,4.360352 1.376953,1.59668 3.759766,1.59668 2.050781,0 4.394531,-1.259766 l 0,1.757812 q -2.138672,1.103516 -4.667969,1.103516 z m 8.056641,-0.449219 0,-1.630859 q 1.835937,0.634766 3.125,0.634766 1.796875,0 2.807617,-1.528321 1.010742,-1.52832 1.010742,-4.252929 -1.464844,1.80664 -3.330078,1.80664 -1.826172,0 -3.095703,-1.342773 -1.269531,-1.342774 -1.269531,-3.276367 0,-2.2167972 1.352539,-3.6767582 1.352539,-1.4599609 3.40332,-1.4599609 2.353516,0 3.710938,1.8896484 1.357421,1.8896485 1.357421,5.1708987 0,3.730469 -1.655273,5.922851 -1.655273,2.192383 -4.477539,2.192383 -1.132813,0 -2.939453,-0.449219 z m 1.171875,-9.9707027 q 0,1.6796877 0.74707,2.6464847 0.74707,0.966797 2.045899,0.966797 1.220703,0 2.084961,-0.830079 0.864257,-0.830078 0.864257,-2.001953 0,-1.8457029 -0.834961,-2.9736326 -0.834961,-1.1279297 -2.192382,-1.1279297 -1.259766,0 -1.987305,0.8935547 -0.727539,0.8935547 -0.727539,2.4267579 z m 11.230469,9.9511717 0,-1.796875 q 2.070312,0.820313 3.261718,0.820313 1.376953,0 2.241211,-0.805664 0.864258,-0.805665 0.864258,-2.084961 0,-3.046875 -4.267578,-3.046875 l -0.761719,0 0,-1.298828 0.673828,-0.0098 q 4.003907,0 4.003907,-2.8222657 0,-2.2167969 -2.636719,-2.2167969 -1.445313,0 -3.183594,0.8105468 l 0,-1.6796875 q 1.708984,-0.5761718 3.320313,-0.5761718 4.433593,0 4.433593,3.3496094 0,2.5488277 -3.017578,3.6328127 3.496094,0.810547 3.496094,3.828125 0,2.041015 -1.347656,3.203125 -1.347657,1.162109 -3.701172,1.162109 -1.337891,0 -3.378906,-0.46875 z M 55.976562,20 l 0,-1.445313 2.890625,0 0,-11.4062495 -2.890625,0.7226562 0,-1.484375 4.824219,-1.2011718 0,13.3691401 2.890625,0 0,1.445313 z m 12.646485,0 0,-1.445313 2.890625,0 0,-11.4062495 -2.890625,0.7226562 0,-1.484375 4.824219,-1.2011718 0,13.3691401 2.890625,0 0,1.445313 z" />
      </g>
      <!-- drawing style -->
    </g>
    <g
       style="stroke-width:1;stroke-linecap:square;stroke-linejoin:miter;stroke-miterlimit:10;stroke-dasharray:none;stroke-dashoffset:0"
       id="g274"
       transform="matrix(1.3573654,0,0,1.3573654,146.37457,761.42956)">
      <g
         style="fill:#000000;fill-opacity:1;fill-rule:nonzero;stroke:none"
         id="g276">
        <path
           inkscape:connector-curvature="0"
           id="path278"
           d="M 3.7402344,20 0.01953125,5.546875 l 1.97265625,0 2.9589844,11.416016 2.7246093,-11.416016 1.9726563,0 2.5781255,11.259766 3.183593,-11.259766 1.669922,0 L 13.027344,20 10.986328,20 8.4375,8.8574219 5.7714844,20 z m 15.2343746,0 0,-14.453125 2.050782,0 0,6.09375 6.875,0 0,-6.09375 2.050781,0 0,14.453125 -2.050781,0 0,-6.826172 -6.875,0 0,6.826172 z m 15.839844,0 q 0.283203,-1.689453 0.805664,-2.919922 0.522461,-1.230469 1.850586,-3.378906 l 3.945313,-6.3476564 -7.441407,0 0,-1.8066406 9.277344,0 0,1.8066406 Q 37.695312,15.546875 37.03125,20 z m 14.238281,-7.871094 q -2.11914,-1.474609 -2.11914,-3.2617185 0,-1.640625 1.201172,-2.6660156 1.201171,-1.0253907 3.134765,-1.0253907 1.78711,0 2.895508,0.8691407 1.108398,0.8691406 1.108398,2.2558594 0,2.0996097 -2.695312,3.8281247 3.271484,1.601563 3.271484,4.13086 0,1.816406 -1.37207,2.958984 -1.37207,1.142578 -3.540039,1.142578 -2.128906,0 -3.442383,-1.079101 -1.313476,-1.079102 -1.313476,-2.836915 0,-2.597656 2.871093,-4.316406 z m 2.451172,-0.605468 q 2.021485,-1.328125 2.021485,-2.9589849 0,-0.8691406 -0.673829,-1.4013672 -0.673828,-0.5322265 -1.777343,-0.5322265 -1.064453,0 -1.728516,0.5224609 -0.664062,0.5224609 -0.664062,1.3525391 0,0.8105469 0.600586,1.4501953 0.600585,0.6396483 2.221679,1.5673833 z m -1.40625,1.386718 q -1.162109,0.898438 -1.577148,1.567383 -0.415039,0.668945 -0.415039,1.665039 0,1.240234 0.800781,2.006836 0.800781,0.766602 2.109375,0.766602 1.259766,0 2.055664,-0.654297 0.795898,-0.654297 0.795898,-1.699219 0,-0.839844 -0.493164,-1.420898 -0.493164,-0.581055 -1.909179,-1.420899 z m 13.271485,7.451172 q -2.236329,0 -3.618164,-2.104492 -1.381836,-2.104492 -1.381836,-5.493164 0,-3.4179689 1.391601,-5.498047 1.391602,-2.0800781 3.666992,-2.0800781 2.275391,0 3.666993,2.0800781 1.391601,2.0800781 1.391601,5.46875 0,3.476562 -1.391601,5.551758 -1.391602,2.075195 -3.725586,2.075195 z m 0.01953,-1.445312 q 3.05664,0 3.05664,-6.210938 0,-6.0742186 -3.017578,-6.0742186 -3.007812,0 -3.007812,6.1328126 0,6.152344 2.96875,6.152344 z m 8.388672,0.976562 0,-1.796875 q 2.070312,0.820313 3.261718,0.820313 1.376954,0 2.241211,-0.805664 0.864258,-0.805665 0.864258,-2.084961 0,-3.046875 -4.267578,-3.046875 l -0.761719,0 0,-1.298828 0.673828,-0.0098 q 4.003907,0 4.003907,-2.8222657 0,-2.2167969 -2.636719,-2.2167969 -1.445313,0 -3.183594,0.8105468 l 0,-1.6796875 q 1.708985,-0.5761718 3.320313,-0.5761718 4.433593,0 4.433593,3.3496094 0,2.5488277 -3.017578,3.6328127 3.496094,0.810547 3.496094,3.828125 0,2.041015 -1.347656,3.203125 -1.347656,1.162109 -3.701172,1.162109 -1.337891,0 -3.378906,-0.46875 z" />
      </g>
      <!-- drawing style -->
    </g>
    <g
       style="stroke-width:1;stroke-linecap:square;stroke-linejoin:miter;stroke-miterlimit:10;stroke-dasharray:none;stroke-dashoffset:0"
       id="g280"
       transform="matrix(1.3573654,0,0,1.3573654,836.94164,187.5035)">
      <g
         style="fill:#ff3200;fill-opacity:1;fill-rule:nonzero;stroke:none"
         id="g282">
        <path
           inkscape:connector-curvature="0"
           id="path284"
           d="m 1.8652344,20 0,-14.453125 2.8417968,0 4.0039063,11.181641 4.1210935,-11.181641 2.539063,0 0,14.453125 -1.914063,0 0,-11.7578125 -3.9843747,10.7910155 -1.9824219,0 L 3.6230469,8.2128906 3.6230469,20 z m 17.2167966,0 0,-14.453125 2.050781,0 0,14.453125 z m 9.208985,0 0,-12.9199219 -5.126954,0 0,-1.5332031 12.304688,0 0,1.5332031 -5.126953,0 0,12.9199219 z m 9.61914,-0.08789 0,-1.630859 q 1.835938,0.634766 3.125,0.634766 1.796875,0 2.807617,-1.528321 1.010743,-1.52832 1.010743,-4.252929 -1.464844,1.80664 -3.330079,1.80664 -1.826171,0 -3.095703,-1.342773 -1.269531,-1.342774 -1.269531,-3.276367 0,-2.2167972 1.352539,-3.6767582 1.352539,-1.4599609 3.40332,-1.4599609 2.353516,0 3.710938,1.8896484 1.357422,1.8896485 1.357422,5.1708987 0,3.730469 -1.655274,5.922851 -1.655273,2.192383 -4.477539,2.192383 -1.132812,0 -2.939453,-0.449219 z m 1.171875,-9.9707027 q 0,1.6796877 0.747071,2.6464847 0.74707,0.966797 2.045898,0.966797 1.220703,0 2.084961,-0.830079 0.864258,-0.830078 0.864258,-2.001953 0,-1.8457029 -0.834961,-2.9736326 -0.834961,-1.1279297 -2.192383,-1.1279297 -1.259766,0 -1.987305,0.8935547 -0.727539,0.8935547 -0.727539,2.4267579 z m 11.63086,10.1171877 0,-1.71875 q 1.435546,0.576172 2.734375,0.576172 1.425781,0 2.241211,-0.839844 0.815429,-0.839844 0.815429,-2.314453 0,-3.251953 -4.482422,-3.251953 -0.507812,0 -1.064453,0.06836 l 0,-7.03125 7.314453,0 0,1.6796875 -5.625,0 0,3.8085935 q 2.783203,0 4.345703,1.279297 1.5625,1.279297 1.5625,3.544922 0,2.109375 -1.420898,3.305664 -1.420898,1.196289 -3.94043,1.196289 -1.09375,0 -2.480468,-0.302734 z M 63.935547,20 l 0,-1.445313 2.890625,0 0,-11.4062495 -2.890625,0.7226562 0,-1.484375 4.824219,-1.2011718 0,13.3691401 2.890625,0 0,1.445313 z m 12.070312,0.05859 0,-1.71875 q 1.435547,0.576172 2.734375,0.576172 1.425782,0 2.241211,-0.839844 0.81543,-0.839844 0.81543,-2.314453 0,-3.251953 -4.482422,-3.251953 -0.507812,0 -1.064453,0.06836 l 0,-7.03125 7.314453,0 0,1.6796875 -5.625,0 0,3.8085935 q 2.783203,0 4.345703,1.279297 1.5625,1.279297 1.5625,3.544922 0,2.109375 -1.420898,3.305664 -1.420899,1.196289 -3.94043,1.196289 -1.09375,0 -2.480469,-0.302734 z" />
      </g>
      <!-- drawing style -->
    </g>
    <g
       style="stroke-width:1;stroke-linecap:square;stroke-linejoin:miter;stroke-miterlimit:10;stroke-dasharray:none;stroke-dashoffset:0"
       id="g286"
       transform="matrix(1.3573654,0,0,1.3573654,820.29478,235.33068)">
      <g
         style="fill:#ff9600;fill-opacity:1;fill-rule:nonzero;stroke:none"
         id="g288">
        <path
           inkscape:connector-curvature="0"
           id="path290"
           d="m 1.8652344,20 0,-14.453125 2.8417968,0 4.0039063,11.181641 4.1210935,-11.181641 2.539063,0 0,14.453125 -1.914063,0 0,-11.7578125 -3.9843747,10.7910155 -1.9824219,0 L 3.6230469,8.2128906 3.6230469,20 z m 17.2167966,0 0,-14.453125 2.050781,0 0,14.453125 z m 9.208985,0 0,-12.9199219 -5.126954,0 0,-1.5332031 12.304688,0 0,1.5332031 -5.126953,0 0,12.9199219 z m 9.61914,-0.08789 0,-1.630859 q 1.835938,0.634766 3.125,0.634766 1.796875,0 2.807617,-1.528321 1.010743,-1.52832 1.010743,-4.252929 -1.464844,1.80664 -3.330079,1.80664 -1.826171,0 -3.095703,-1.342773 -1.269531,-1.342774 -1.269531,-3.276367 0,-2.2167972 1.352539,-3.6767582 1.352539,-1.4599609 3.40332,-1.4599609 2.353516,0 3.710938,1.8896484 1.357422,1.8896485 1.357422,5.1708987 0,3.730469 -1.655274,5.922851 -1.655273,2.192383 -4.477539,2.192383 -1.132812,0 -2.939453,-0.449219 z m 1.171875,-9.9707027 q 0,1.6796877 0.747071,2.6464847 0.74707,0.966797 2.045898,0.966797 1.220703,0 2.084961,-0.830079 0.864258,-0.830078 0.864258,-2.001953 0,-1.8457029 -0.834961,-2.9736326 -0.834961,-1.1279297 -2.192383,-1.1279297 -1.259766,0 -1.987305,0.8935547 -0.727539,0.8935547 -0.727539,2.4267579 z m 11.230469,9.9511717 0,-1.796875 q 2.070312,0.820313 3.261719,0.820313 1.376953,0 2.241211,-0.805664 0.864257,-0.805665 0.864257,-2.084961 0,-3.046875 -4.267578,-3.046875 l -0.761718,0 0,-1.298828 0.673828,-0.0098 q 4.003906,0 4.003906,-2.8222657 0,-2.2167969 -2.636719,-2.2167969 -1.445312,0 -3.183594,0.8105468 l 0,-1.6796875 q 1.708985,-0.5761718 3.320313,-0.5761718 4.433594,0 4.433594,3.3496094 0,2.5488277 -3.017578,3.6328127 3.496093,0.810547 3.496093,3.828125 0,2.041015 -1.347656,3.203125 -1.347656,1.162109 -3.701172,1.162109 -1.33789,0 -3.378906,-0.46875 z M 63.935547,20 l 0,-1.445313 2.890625,0 0,-11.4062495 -2.890625,0.7226562 0,-1.484375 4.824219,-1.2011718 0,13.3691401 2.890625,0 0,1.445313 z m 11.298828,0 0,-1.689453 q 0.839844,-1.962891 3.398437,-4.277344 l 1.103516,-0.986328 q 2.128906,-1.923828 2.128906,-3.8183594 0,-1.2109375 -0.727539,-1.9042969 -0.727539,-0.6933593 -1.99707,-0.6933593 -1.503906,0 -3.544922,1.1621093 l 0,-1.6992187 q 1.923828,-0.9082031 3.818359,-0.9082031 2.03125,0 3.261719,1.09375 1.230469,1.09375 1.230469,2.9003906 0,1.2988285 -0.620117,2.3046875 -0.620117,1.005859 -2.309571,2.441406 l -0.742187,0.634766 q -2.314453,1.96289 -2.675781,3.75 l 6.279297,0 0,1.689453 z" />
      </g>
      <!-- drawing style -->
    </g>
    <g
       style="stroke-width:1;stroke-linecap:square;stroke-linejoin:miter;stroke-miterlimit:10;stroke-dasharray:none;stroke-dashoffset:0"
       id="g292"
       transform="matrix(1.3573654,0,0,1.3573654,670.08071,426.63936)">
      <g
         style="fill:#00ff00;fill-opacity:1;fill-rule:nonzero;stroke:none"
         id="g294">
        <path
           inkscape:connector-curvature="0"
           id="path296"
           d="m 1.8652344,20 0,-14.453125 2.0117187,0 7.2753909,11.162109 0,-11.162109 1.757812,0 0,14.453125 -2.001953,0 L 3.6230469,8.8378906 3.6230469,20 z M 23.964844,14.472656 21.503906,8.2421875 19.033203,14.472656 z M 26.132812,20 l -1.572265,-4.003906 -6.123047,0 L 16.845703,20 l -1.904297,0 5.732422,-14.453125 2.03125,0 L 28.349609,20 z m 7.744141,0 0,-12.9199219 -5.126953,0 0,-1.5332031 12.304687,0 0,1.5332031 -5.126953,0 0,12.9199219 z m 9.208984,0 0,-14.453125 2.050782,0 0,12.919922 6.503906,0 0,1.533203 z m 10.458985,0 0,-1.689453 q 0.839844,-1.962891 3.398437,-4.277344 l 1.103516,-0.986328 q 2.128906,-1.923828 2.128906,-3.8183594 0,-1.2109375 -0.727539,-1.9042969 -0.727539,-0.6933593 -1.99707,-0.6933593 -1.503906,0 -3.544922,1.1621093 l 0,-1.6992187 q 1.923828,-0.9082031 3.818359,-0.9082031 2.03125,0 3.261719,1.09375 1.230469,1.09375 1.230469,2.9003906 0,1.2988285 -0.620117,2.3046875 -0.620118,1.005859 -2.309571,2.441406 l -0.742187,0.634766 q -2.314453,1.96289 -2.675781,3.75 l 6.279296,0 0,1.689453 z M 73.720703,14.472656 71.259766,8.2421875 68.789062,14.472656 z M 75.888672,20 l -1.572266,-4.003906 -6.123047,0 L 66.601562,20 l -1.904296,0 5.732421,-14.453125 2.03125,0 L 78.105469,20 z" />
      </g>
      <!-- drawing style -->
    </g>
    <g
       style="stroke-width:1;stroke-linecap:square;stroke-linejoin:miter;stroke-miterlimit:10;stroke-dasharray:none;stroke-dashoffset:0"
       id="g298"
       transform="matrix(1.3573654,0,0,1.3573654,830.25431,139.67634)">
      <g
         style="fill:#ff3200;fill-opacity:1;fill-rule:nonzero;stroke:none"
         id="g300">
        <path
           inkscape:connector-curvature="0"
           id="path302"
           d="m 1.8652344,20 0,-14.453125 2.8417968,0 4.0039063,11.181641 4.1210935,-11.181641 2.539063,0 0,14.453125 -1.914063,0 0,-11.7578125 -3.9843747,10.7910155 -1.9824219,0 L 3.6230469,8.2128906 3.6230469,20 z m 17.2265626,0 0,-14.453125 8.076172,0 0,1.5332031 -6.025391,0 0,4.6386719 5.048828,0 0,1.513672 -5.048828,0 0,5.234375 6.445313,0 0,1.533203 z m 10.839844,0 0,-14.453125 4.804687,0 q 2.148438,0 3.47168,0.4785156 1.323242,0.4785156 2.290039,1.6210938 1.533203,1.8164062 1.533203,4.7851566 0,3.603515 -1.904297,5.585937 Q 38.222656,20 34.765625,20 z m 2.050781,-1.533203 2.626953,0 q 2.8125,0 3.984375,-1.513672 1.259766,-1.611328 1.259766,-4.326172 0,-2.548828 -1.240235,-4.0039061 Q 37.861328,7.734375 36.816406,7.4072266 35.771484,7.0800781 33.671875,7.0800781 l -1.689453,0 z M 50.576172,20 l 0,-4.091797 -6.503906,0 0,-1.455078 6.503906,-8.90625 1.80664,0 0,8.789063 1.933594,0 0,1.572265 -1.933594,0 0,4.091797 z m -4.619141,-5.664062 4.746094,0 0,-6.4257818 z" />
      </g>
      <!-- drawing style -->
    </g>
    <g
       style="stroke-width:1;stroke-linecap:square;stroke-linejoin:miter;stroke-miterlimit:10;stroke-dasharray:none;stroke-dashoffset:0"
       id="g304"
       transform="matrix(1.3573654,0,0,1.3573654,833.46204,378.8122)">
      <g
         style="fill:#ff9600;fill-opacity:1;fill-rule:nonzero;stroke:none"
         id="g306">
        <path
           inkscape:connector-curvature="0"
           id="path308"
           d="M 9.1894531,14.472656 6.7285156,8.2421875 4.2578125,14.472656 z M 11.357422,20 9.7851563,15.996094 l -6.1230469,0 L 2.0703125,20 0.16601562,20 5.8984375,5.546875 l 2.03125,0 L 13.574219,20 z m 7.138672,0.361328 q -1.455078,0 -3.720703,-0.634766 l 0,-2.03125 q 2.441406,1.132813 4.013671,1.132813 1.210938,0 1.948243,-0.634766 0.737304,-0.634765 0.737304,-1.669922 0,-0.849609 -0.483398,-1.445312 Q 20.507812,14.482422 19.208984,13.75 l -0.996093,-0.576172 q -1.845704,-1.054687 -2.602539,-1.987305 -0.756836,-0.932617 -0.756836,-2.1728511 0,-1.6699219 1.210937,-2.7490235 1.210938,-1.0791015 3.085938,-1.0791015 1.669921,0 3.52539,0.5566406 l 0,1.875 Q 20.390625,6.71875 19.267578,6.71875 q -1.064453,0 -1.757812,0.5664062 -0.69336,0.5664063 -0.69336,1.4257813 0,0.7226563 0.507813,1.2792969 0.507812,0.5566406 1.855468,1.3281246 l 1.035157,0.585938 q 1.875,1.064453 2.617187,2.011719 0.742188,0.947265 0.742188,2.27539 0,1.884766 -1.391602,3.027344 -1.391601,1.142578 -3.686523,1.142578 z m 8.349609,-0.449219 0,-1.630859 q 1.835938,0.634766 3.125,0.634766 1.796875,0 2.807617,-1.528321 1.010742,-1.52832 1.010742,-4.252929 -1.464843,1.80664 -3.330078,1.80664 -1.826172,0 -3.095703,-1.342773 -1.269531,-1.342774 -1.269531,-3.276367 0,-2.2167972 1.352539,-3.6767582 1.352539,-1.4599609 3.40332,-1.4599609 2.353516,0 3.710938,1.8896484 1.357422,1.8896485 1.357422,5.1708987 0,3.730469 -1.655274,5.922851 -1.655273,2.192383 -4.477539,2.192383 -1.132812,0 -2.939453,-0.449219 z m 1.171875,-9.9707027 q 0,1.6796877 0.74707,2.6464847 0.747071,0.966797 2.045899,0.966797 1.220703,0 2.084961,-0.830079 0.864258,-0.830078 0.864258,-2.001953 0,-1.8457029 -0.834961,-2.9736326 -0.834961,-1.1279297 -2.192383,-1.1279297 -1.259766,0 -1.987305,0.8935547 -0.727539,0.8935547 -0.727539,2.4267579 z m 12.636719,2.5683597 q 1.376953,-1.78711 3.466797,-1.78711 1.894531,0 3.100586,1.254883 1.206054,1.254883 1.206054,3.217774 0,2.255859 -1.352539,3.710937 -1.352539,1.455078 -3.432617,1.455078 -2.392578,0 -3.740234,-1.923828 -1.347657,-1.923828 -1.347657,-5.341797 0,-3.7597655 1.547852,-5.8398436 1.547852,-2.0800782 4.360352,-2.0800782 1.289062,0 3.222656,0.546875 l 0,1.6796875 q -2.041016,-0.78125 -3.339844,-0.78125 -3.691406,0 -3.691406,5.8886723 z M 46.494141,15.625 q 0,-1.640625 -0.737305,-2.578125 -0.737305,-0.9375 -2.045899,-0.9375 -1.220703,0 -2.099609,0.820313 -0.878906,0.820312 -0.878906,1.972656 0,1.816406 0.834961,2.915039 0.834961,1.098633 2.211914,1.098633 1.240234,0 1.977539,-0.893555 0.737305,-0.893555 0.737305,-2.397461 z m 9.638671,4.736328 q -2.236328,0 -3.618164,-2.104492 -1.381836,-2.104492 -1.381836,-5.493164 0,-3.4179689 1.391602,-5.498047 1.391602,-2.0800781 3.666992,-2.0800781 2.275391,0 3.666992,2.0800781 1.391602,2.0800781 1.391602,5.46875 0,3.476562 -1.391602,5.551758 -1.391601,2.075195 -3.725586,2.075195 z m 0.01953,-1.445312 q 3.05664,0 3.05664,-6.210938 0,-6.0742186 -3.017578,-6.0742186 -3.007812,0 -3.007812,6.1328126 0,6.152344 2.96875,6.152344 z M 65.517578,20 l 0,-1.445313 2.890625,0 0,-11.4062495 -2.890625,0.7226562 0,-1.484375 4.824219,-1.2011718 0,13.3691401 2.890625,0 0,1.445313 z" />
      </g>
      <!-- drawing style -->
    </g>
    <g
       style="stroke-width:1;stroke-linecap:square;stroke-linejoin:miter;stroke-miterlimit:10;stroke-dasharray:none;stroke-dashoffset:0"
       id="g310"
       transform="matrix(1.3573654,0,0,1.3573654,134.33064,857.08391)">
      <g
         style="fill:#000000;fill-opacity:1;fill-rule:nonzero;stroke:none"
         id="g312">
        <path
           inkscape:connector-curvature="0"
           id="path314"
           d="m 8.0566406,20.361328 q -3.3691406,0 -5.2050781,-1.977539 Q 1.015625,16.40625 1.015625,12.783203 q 0,-3.6132811 1.8701172,-5.6054686 1.8701172,-1.9921875 5.2685547,-1.9921875 1.9433591,0 4.5507811,0.6347656 l 0,1.9238281 Q 9.7363281,6.71875 8.125,6.71875 q -2.3535156,0 -3.6425781,1.5917969 -1.2890625,1.5917969 -1.2890625,4.4921871 0,2.763672 1.3769531,4.360352 1.3769531,1.59668 3.7597656,1.59668 2.0507809,0 4.3945309,-1.259766 l 0,1.757812 q -2.138671,1.103516 -4.6679684,1.103516 z m 13.8378904,0 q -3.36914,0 -5.205078,-1.977539 -1.835937,-1.977539 -1.835937,-5.600586 0,-3.6132811 1.870117,-5.6054686 1.870117,-1.9921875 5.268554,-1.9921875 1.94336,0 4.550782,0.6347656 l 0,1.9238281 Q 23.574219,6.71875 21.962891,6.71875 q -2.353516,0 -3.642579,1.5917969 -1.289062,1.5917969 -1.289062,4.4921871 0,2.763672 1.376953,4.360352 1.376953,1.59668 3.759766,1.59668 2.050781,0 4.394531,-1.259766 l 0,1.757812 q -2.138672,1.103516 -4.667969,1.103516 z m 8.056641,-0.449219 0,-1.630859 q 1.835937,0.634766 3.125,0.634766 1.796875,0 2.807617,-1.528321 1.010742,-1.52832 1.010742,-4.252929 -1.464844,1.80664 -3.330078,1.80664 -1.826172,0 -3.095703,-1.342773 -1.269531,-1.342774 -1.269531,-3.276367 0,-2.2167972 1.352539,-3.6767582 1.352539,-1.4599609 3.40332,-1.4599609 2.353516,0 3.710938,1.8896484 1.357421,1.8896485 1.357421,5.1708987 0,3.730469 -1.655273,5.922851 -1.655273,2.192383 -4.477539,2.192383 -1.132813,0 -2.939453,-0.449219 z m 1.171875,-9.9707027 q 0,1.6796877 0.74707,2.6464847 0.74707,0.966797 2.045899,0.966797 1.220703,0 2.084961,-0.830079 0.864257,-0.830078 0.864257,-2.001953 0,-1.8457029 -0.834961,-2.9736326 -0.834961,-1.1279297 -2.192382,-1.1279297 -1.259766,0 -1.987305,0.8935547 -0.727539,0.8935547 -0.727539,2.4267579 z m 12.636719,2.5683597 q 1.376953,-1.78711 3.466796,-1.78711 1.894532,0 3.100586,1.254883 1.206055,1.254883 1.206055,3.217774 0,2.255859 -1.352539,3.710937 -1.352539,1.455078 -3.432617,1.455078 -2.392578,0 -3.740235,-1.923828 -1.347656,-1.923828 -1.347656,-5.341797 0,-3.7597655 1.547852,-5.8398436 1.547851,-2.0800782 4.360351,-2.0800782 1.289063,0 3.222657,0.546875 l 0,1.6796875 q -2.041016,-0.78125 -3.339844,-0.78125 -3.691406,0 -3.691406,5.8886723 z M 49.599609,15.625 q 0,-1.640625 -0.737304,-2.578125 -0.737305,-0.9375 -2.045899,-0.9375 -1.220703,0 -2.099609,0.820313 -0.878906,0.820312 -0.878906,1.972656 0,1.816406 0.834961,2.915039 0.83496,1.098633 2.211914,1.098633 1.240234,0 1.977539,-0.893555 0.737304,-0.893555 0.737304,-2.397461 z m 9.638672,4.736328 q -2.236328,0 -3.618164,-2.104492 -1.381836,-2.104492 -1.381836,-5.493164 0,-3.4179689 1.391602,-5.498047 1.391601,-2.0800781 3.666992,-2.0800781 2.275391,0 3.666992,2.0800781 1.391602,2.0800781 1.391602,5.46875 0,3.476562 -1.391602,5.551758 -1.391601,2.075195 -3.725586,2.075195 z m 0.01953,-1.445312 q 3.056641,0 3.056641,-6.210938 0,-6.0742186 -3.017578,-6.0742186 -3.007813,0 -3.007813,6.1328126 0,6.152344 2.96875,6.152344 z m 8.789063,1.142578 0,-1.71875 q 1.435547,0.576172 2.734375,0.576172 1.425781,0 2.241211,-0.839844 0.81543,-0.839844 0.81543,-2.314453 0,-3.251953 -4.482422,-3.251953 -0.507813,0 -1.064453,0.06836 l 0,-7.03125 7.314453,0 0,1.6796875 -5.625,0 0,3.8085935 q 2.783203,0 4.345703,1.279297 1.5625,1.279297 1.5625,3.544922 0,2.109375 -1.420899,3.305664 -1.420898,1.196289 -3.940429,1.196289 -1.09375,0 -2.480469,-0.302734 z" />
      </g>
      <!-- drawing style -->
    </g>
    <g
       style="stroke-width:1;stroke-linecap:square;stroke-linejoin:miter;stroke-miterlimit:10;stroke-dasharray:none;stroke-dashoffset:0"
       id="g316"
       transform="matrix(1.3573654,0,0,1.3573654,206.3161,665.77522)">
      <g
         style="fill:#006400;fill-opacity:1;fill-rule:nonzero;stroke:none"
         id="g318">
        <path
           inkscape:connector-curvature="0"
           id="path320"
           d="m 1.8652344,20 0,-14.453125 2.8417968,0 4.0039063,11.181641 4.1210935,-11.181641 2.539063,0 0,14.453125 -1.914063,0 0,-11.7578125 -3.9843747,10.7910155 -1.9824219,0 L 3.6230469,8.2128906 3.6230469,20 z m 17.2167966,0 0,-14.453125 2.050781,0 0,14.453125 z m 9.208985,0 0,-12.9199219 -5.126954,0 0,-1.5332031 12.304688,0 0,1.5332031 -5.126953,0 0,12.9199219 z m 9.61914,-0.08789 0,-1.630859 q 1.835938,0.634766 3.125,0.634766 1.796875,0 2.807617,-1.528321 1.010743,-1.52832 1.010743,-4.252929 -1.464844,1.80664 -3.330079,1.80664 -1.826171,0 -3.095703,-1.342773 -1.269531,-1.342774 -1.269531,-3.276367 0,-2.2167972 1.352539,-3.6767582 1.352539,-1.4599609 3.40332,-1.4599609 2.353516,0 3.710938,1.8896484 1.357422,1.8896485 1.357422,5.1708987 0,3.730469 -1.655274,5.922851 -1.655273,2.192383 -4.477539,2.192383 -1.132812,0 -2.939453,-0.449219 z m 1.171875,-9.9707027 q 0,1.6796877 0.747071,2.6464847 0.74707,0.966797 2.045898,0.966797 1.220703,0 2.084961,-0.830079 0.864258,-0.830078 0.864258,-2.001953 0,-1.8457029 -0.834961,-2.9736326 -0.834961,-1.1279297 -2.192383,-1.1279297 -1.259766,0 -1.987305,0.8935547 -0.727539,0.8935547 -0.727539,2.4267579 z m 11.230469,9.9511717 0,-1.796875 q 2.070312,0.820313 3.261719,0.820313 1.376953,0 2.241211,-0.805664 0.864257,-0.805665 0.864257,-2.084961 0,-3.046875 -4.267578,-3.046875 l -0.761718,0 0,-1.298828 0.673828,-0.0098 q 4.003906,0 4.003906,-2.8222657 0,-2.2167969 -2.636719,-2.2167969 -1.445312,0 -3.183594,0.8105468 l 0,-1.6796875 q 1.708985,-0.5761718 3.320313,-0.5761718 4.433594,0 4.433594,3.3496094 0,2.5488277 -3.017578,3.6328127 3.496093,0.810547 3.496093,3.828125 0,2.041015 -1.347656,3.203125 -1.347656,1.162109 -3.701172,1.162109 -1.33789,0 -3.378906,-0.46875 z m 16.884766,0.46875 q -2.236329,0 -3.618164,-2.104492 -1.381836,-2.104492 -1.381836,-5.493164 0,-3.4179689 1.391601,-5.498047 1.391602,-2.0800781 3.666992,-2.0800781 2.275391,0 3.666993,2.0800781 1.391601,2.0800781 1.391601,5.46875 0,3.476562 -1.391601,5.551758 -1.391602,2.075195 -3.725586,2.075195 z m 0.01953,-1.445312 q 3.05664,0 3.05664,-6.210938 0,-6.0742186 -3.017578,-6.0742186 -3.007812,0 -3.007812,6.1328126 0,6.152344 2.96875,6.152344 z m 8.388672,0.976562 0,-1.796875 q 2.070312,0.820313 3.261718,0.820313 1.376954,0 2.241211,-0.805664 0.864258,-0.805665 0.864258,-2.084961 0,-3.046875 -4.267578,-3.046875 l -0.761719,0 0,-1.298828 0.673828,-0.0098 q 4.003907,0 4.003907,-2.8222657 0,-2.2167969 -2.636719,-2.2167969 -1.445313,0 -3.183594,0.8105468 l 0,-1.6796875 q 1.708985,-0.5761718 3.320313,-0.5761718 4.433593,0 4.433593,3.3496094 0,2.5488277 -3.017578,3.6328127 3.496094,0.810547 3.496094,3.828125 0,2.041015 -1.347656,3.203125 -1.347656,1.162109 -3.701172,1.162109 -1.337891,0 -3.378906,-0.46875 z" />
      </g>
      <!-- drawing style -->
    </g>
    <g
       style="stroke-width:1;stroke-linecap:square;stroke-linejoin:miter;stroke-miterlimit:10;stroke-dasharray:none;stroke-dashoffset:0"
       id="g322"
       transform="matrix(1.3573654,0,0,1.3573654,121.75761,809.25674)">
      <g
         style="fill:#000000;fill-opacity:1;fill-rule:nonzero;stroke:none"
         id="g324">
        <path
           inkscape:connector-curvature="0"
           id="path326"
           d="M 3.7402344,20 0.01953125,5.546875 l 1.97265625,0 2.9589844,11.416016 2.7246093,-11.416016 1.9726563,0 2.5781255,11.259766 3.183593,-11.259766 1.669922,0 L 13.027344,20 10.986328,20 8.4375,8.8574219 5.7714844,20 z m 15.2343746,0 0,-14.453125 2.050782,0 0,6.09375 6.875,0 0,-6.09375 2.050781,0 0,14.453125 -2.050781,0 0,-6.826172 -6.875,0 0,6.826172 z M 36.40625,12.128906 q -2.119141,-1.474609 -2.119141,-3.2617185 0,-1.640625 1.201172,-2.6660156 1.201172,-1.0253907 3.134766,-1.0253907 1.787109,0 2.895508,0.8691407 1.108398,0.8691406 1.108398,2.2558594 0,2.0996097 -2.695312,3.8281247 3.271484,1.601563 3.271484,4.13086 0,1.816406 -1.37207,2.958984 -1.372071,1.142578 -3.540039,1.142578 -2.128907,0 -3.442383,-1.079101 -1.313477,-1.079102 -1.313477,-2.836915 0,-2.597656 2.871094,-4.316406 z m 2.451172,-0.605468 q 2.021484,-1.328125 2.021484,-2.9589849 0,-0.8691406 -0.673828,-1.4013672 -0.673828,-0.5322265 -1.777344,-0.5322265 -1.064453,0 -1.728515,0.5224609 -0.664063,0.5224609 -0.664063,1.3525391 0,0.8105469 0.600586,1.4501953 0.600586,0.6396483 2.22168,1.5673833 z m -1.40625,1.386718 q -1.16211,0.898438 -1.577149,1.567383 -0.415039,0.668945 -0.415039,1.665039 0,1.240234 0.800782,2.006836 0.800781,0.766602 2.109375,0.766602 1.259765,0 2.055664,-0.654297 0.795898,-0.654297 0.795898,-1.699219 0,-0.839844 -0.493164,-1.420898 -0.493164,-0.581055 -1.90918,-1.420899 z M 47.460937,20 l 0,-1.445313 2.890625,0 0,-11.4062495 -2.890625,0.7226562 0,-1.484375 4.824219,-1.2011718 0,13.3691401 2.890625,0 0,1.445313 z m 15.908204,0.361328 q -2.236329,0 -3.618164,-2.104492 -1.381836,-2.104492 -1.381836,-5.493164 0,-3.4179689 1.391601,-5.498047 1.391602,-2.0800781 3.666992,-2.0800781 2.275391,0 3.666993,2.0800781 1.391601,2.0800781 1.391601,5.46875 0,3.476562 -1.391601,5.551758 -1.391602,2.075195 -3.725586,2.075195 z m 0.01953,-1.445312 q 3.05664,0 3.05664,-6.210938 0,-6.0742186 -3.017578,-6.0742186 -3.007812,0 -3.007812,6.1328126 0,6.152344 2.96875,6.152344 z M 71.40625,20 l 0,-1.689453 q 0.839844,-1.962891 3.398437,-4.277344 l 1.103516,-0.986328 q 2.128906,-1.923828 2.128906,-3.8183594 0,-1.2109375 -0.727539,-1.9042969 -0.727539,-0.6933593 -1.99707,-0.6933593 -1.503906,0 -3.544922,1.1621093 l 0,-1.6992187 q 1.923828,-0.9082031 3.818359,-0.9082031 2.03125,0 3.261719,1.09375 1.230469,1.09375 1.230469,2.9003906 0,1.2988285 -0.620117,2.3046875 -0.620117,1.005859 -2.309571,2.441406 l -0.742187,0.634766 q -2.314453,1.96289 -2.675781,3.75 l 6.279297,0 0,1.689453 z" />
      </g>
      <!-- drawing style -->
    </g>
    <g
       style="stroke-width:1;stroke-linecap:square;stroke-linejoin:miter;stroke-miterlimit:10;stroke-dasharray:none;stroke-dashoffset:0"
       id="g328"
       transform="matrix(1.3573654,0,0,1.3573654,670.56,474.46654)">
      <g
         style="fill:#00ff00;fill-opacity:1;fill-rule:nonzero;stroke:none"
         id="g330">
        <path
           inkscape:connector-curvature="0"
           id="path332"
           d="m 1.8652344,20 0,-14.453125 2.0117187,0 7.2753909,11.162109 0,-11.162109 1.757812,0 0,14.453125 -2.001953,0 L 3.6230469,8.8378906 3.6230469,20 z M 23.964844,14.472656 21.503906,8.2421875 19.033203,14.472656 z M 26.132812,20 l -1.572265,-4.003906 -6.123047,0 L 16.845703,20 l -1.904297,0 5.732422,-14.453125 2.03125,0 L 28.349609,20 z m 7.744141,0 0,-12.9199219 -5.126953,0 0,-1.5332031 12.304687,0 0,1.5332031 -5.126953,0 0,12.9199219 z m 9.208984,0 0,-14.453125 2.050782,0 0,12.919922 6.503906,0 0,1.533203 z m 11.806641,0 0,-1.445313 2.890625,0 0,-11.4062495 -2.890625,0.7226562 0,-1.484375 4.824219,-1.2011718 0,13.3691401 2.890625,0 0,1.445313 z M 73.720703,14.472656 71.259766,8.2421875 68.789062,14.472656 z M 75.888672,20 l -1.572266,-4.003906 -6.123047,0 L 66.601562,20 l -1.904296,0 5.732421,-14.453125 2.03125,0 L 78.105469,20 z" />
      </g>
      <!-- drawing style -->
    </g>
    <path
       style="fill:none;stroke:#ff0000;stroke-width:1.35736537px;stroke-linecap:butt;stroke-linejoin:miter;stroke-opacity:1"
       d="m 831.34332,170.98548 70.49179,0"
       id="path3540"
       inkscape:connector-curvature="0" />
    <path
       style="fill:none;stroke:#ff0000;stroke-width:1.35736537px;stroke-linecap:butt;stroke-linejoin:miter;stroke-opacity:1"
       d="m 839.7351,218.81924 115.80797,0"
       id="path3542"
       inkscape:connector-curvature="0" />
    <path
       style="fill:none;stroke:#ff9600;stroke-width:1.35736537px;stroke-linecap:butt;stroke-linejoin:miter;stroke-opacity:1"
       d="m 822.95141,267.68936 111.61209,0"
       id="path3544"
       inkscape:connector-curvature="0" />
    <path
       style="fill:none;stroke:#ff9600;stroke-width:1.35736537px;stroke-linecap:butt;stroke-linejoin:miter;stroke-opacity:1"
       d="m 839.7351,315.32596 111.61209,0"
       id="path3546"
       inkscape:connector-curvature="0" />
    <path
       style="fill:none;stroke:#ff9600;stroke-width:1.35736537px;stroke-linecap:butt;stroke-linejoin:miter;stroke-opacity:1"
       d="m 834.70009,362.32055 114.12945,0"
       id="path3548"
       inkscape:connector-curvature="0" />
    <path
       style="fill:none;stroke:#ff9600;stroke-width:1.35736537px;stroke-linecap:butt;stroke-linejoin:miter;stroke-opacity:1"
       d="m 833.02171,410.15431 99.86327,0"
       id="path3550"
       inkscape:connector-curvature="0" />
    <path
       style="fill:none;stroke:#00ff00;stroke-width:1.35736537px;stroke-linecap:butt;stroke-linejoin:miter;stroke-opacity:1"
       d="m 671.89741,457.14888 104.89856,0"
       id="path3552"
       inkscape:connector-curvature="0" />
    <path
       style="fill:none;stroke:#00ff00;stroke-width:1.35736537px;stroke-linecap:butt;stroke-linejoin:miter;stroke-opacity:1"
       d="m 672.73654,504.98265 104.89869,0"
       id="path3554"
       inkscape:connector-curvature="0" />
    <path
       style="fill:none;stroke:#00c800;stroke-width:1.35736537px;stroke-linecap:butt;stroke-linejoin:miter;stroke-opacity:1"
       d="m 577.90827,554.69195 78.8837,0"
       id="path3556"
       inkscape:connector-curvature="0" />
    <path
       style="fill:none;stroke:#00c800;stroke-width:1.35736537px;stroke-linecap:butt;stroke-linejoin:miter;stroke-opacity:1"
       d="m 517.48665,601.48936 109.9337,0"
       id="path3558"
       inkscape:connector-curvature="0" />
    <path
       style="fill:none;stroke:#000000;stroke-width:4;stroke-linecap:butt;stroke-linejoin:miter;stroke-miterlimit:4;stroke-opacity:1;stroke-dasharray:none;marker-start:url(#Arrow1Mstart);marker-end:url(#Arrow1Mend-55)"
       d="M 57.142857,569.50504 125.71429,283.79075 208.57143,500.93361"
       id="path3737"
       inkscape:connector-curvature="0" />
    <flowRoot
       xml:space="preserve"
       id="flowRoot5143"
       style="font-style:normal;font-variant:normal;font-weight:normal;font-stretch:normal;font-size:28px;line-height:125%;font-family:Sans;-inkscape-font-specification:Helvetica;text-align:center;letter-spacing:0px;word-spacing:0px;text-anchor:middle;fill:#000000;fill-opacity:1;stroke:none"
       transform="translate(454.28572,320)"><flowRegion
         id="flowRegion5145"><rect
           id="rect5147"
           width="488.57138"
           height="305.71426"
           x="-580"
           y="-116.20924"
           style="font-style:normal;font-variant:normal;font-weight:normal;font-stretch:normal;font-size:28px;font-family:Sans;-inkscape-font-specification:Helvetica;text-align:center;text-anchor:middle" /></flowRegion><flowPara
         id="flowPara5149">[Sun &amp; Blanchard, 2014] </flowPara><flowPara
         id="flowPara4351">Gene losses</flowPara></flowRoot>    <path
       style="fill:none;stroke:#000000;stroke-width:4;stroke-linecap:butt;stroke-linejoin:miter;stroke-miterlimit:4;stroke-opacity:1;stroke-dasharray:none;marker-start:url(#Arrow1Mstart);marker-end:url(#Arrow1Mend-55)"
       d="M 279.99998,507.93362 482.85713,77.933616 401.92356,439.16982"
       id="path5151"
       inkscape:connector-curvature="0"
       sodipodi:nodetypes="ccc" />
    <flowRoot
       xml:space="preserve"
       id="flowRoot5143-3"
       style="font-style:normal;font-variant:normal;font-weight:normal;font-stretch:normal;font-size:28px;line-height:125%;font-family:Sans;-inkscape-font-specification:Helvetica;text-align:center;letter-spacing:0px;word-spacing:0px;text-anchor:middle;fill:#000000;fill-opacity:1;stroke:none"
       transform="translate(816.59978,110.89657)"><flowRegion
         id="flowRegion5145-6"><rect
           id="rect5147-9"
           width="488.57138"
           height="305.71426"
           x="-580"
           y="-116.20924"
           style="font-style:normal;font-variant:normal;font-weight:normal;font-stretch:normal;font-size:28px;font-family:Sans;-inkscape-font-specification:Helvetica;text-align:center;text-anchor:middle" /></flowRegion><flowPara
         id="flowPara5149-1">[Luo et al, 2011] </flowPara><flowPara
         id="flowPara4353">Gene losses</flowPara></flowRoot>    <flowRoot
       xml:space="preserve"
       id="flowRoot5143-2"
       style="font-style:normal;font-variant:normal;font-weight:normal;font-stretch:normal;font-size:28px;line-height:125%;font-family:Sans;-inkscape-font-specification:Helvetica;text-align:center;letter-spacing:0px;word-spacing:0px;text-anchor:middle;fill:#000000;fill-opacity:1;stroke:none"
       transform="translate(981.55698,776.69496)"><flowRegion
         id="flowRegion5145-3"><rect
           id="rect5147-0"
           width="401.69827"
           height="305.71426"
           x="-580"
           y="-116.20924"
           style="font-style:normal;font-variant:normal;font-weight:normal;font-stretch:normal;font-size:28px;font-family:Sans;-inkscape-font-specification:Helvetica;text-align:center;text-anchor:middle" /></flowRegion><flowPara
         id="flowPara5149-6">[Kettler et al, 2007] </flowPara><flowPara
         id="flowPara4341">More gene gains than gene losses in reduced strains</flowPara></flowRoot>    <path
       style="fill:none;stroke:#000000;stroke-width:4;stroke-linecap:butt;stroke-linejoin:miter;stroke-miterlimit:4;stroke-opacity:1;stroke-dasharray:none;marker-start:url(#Arrow1Mstart);marker-end:none"
       d="m 162.85715,672.36217 21.49016,34.86004 216.30444,8.08122"
       id="path5575"
       inkscape:connector-curvature="0"
       sodipodi:nodetypes="ccc" />
    <path
       style="fill:none;stroke:#000000;stroke-width:4;stroke-linecap:butt;stroke-linejoin:miter;stroke-miterlimit:4;stroke-opacity:1;stroke-dasharray:none;marker-start:url(#Arrow1Mstart);marker-end:url(#Arrow1Mend-55)"
       d="M 594.28571,195.53577 610.08666,-62.443928 721.42857,89.82148"
       id="path3182"
       inkscape:connector-curvature="0"
       transform="translate(-126.64787,142.20548)"
       sodipodi:nodetypes="ccc" />
    <path
       style="fill:none;stroke:#000000;stroke-width:4;stroke-linecap:butt;stroke-linejoin:miter;stroke-miterlimit:4;stroke-opacity:1;stroke-dasharray:none;marker-start:url(#Arrow1Mstart);marker-end:url(#Arrow1Mend-55)"
       d="M 888.57143,34.107195 609.28571,-63.749947 895.71429,146.96434"
       id="path3184"
       inkscape:connector-curvature="0"
       transform="translate(-126.64787,142.20548)"
       sodipodi:nodetypes="ccc" />
    <flowRoot
       xml:space="preserve"
       id="flowRoot4343"
       style="fill:black;stroke:none;stroke-opacity:1;stroke-width:1px;stroke-linejoin:miter;stroke-linecap:butt;fill-opacity:1;font-family:sans-serif;font-style:normal;font-weight:normal;font-size:40px;line-height:125%;letter-spacing:0px;word-spacing:0px;text-anchor:start;text-align:start"><flowRegion
         id="flowRegion4345"><rect
           id="rect4347"
           width="10.101525"
           height="317.1879"
           x="492.95444"
           y="237.08253" /></flowRegion><flowPara
         id="flowPara4349"></flowPara></flowRoot>  </g>
</svg>
